<svg xmlns="http://www.w3.org/2000/svg" version="1.1" xmlns:xlink="http://www.w3.org/1999/xlink" xmlns:svgjs="http://svgjs.dev/svgjs" width="1440" height="560" preserveAspectRatio="none" viewBox="0 0 1440 560"><g mask="url(&quot;#SvgjsMask1018&quot;)" fill="none"><path d="M233.88367853518315 380.03572428346365L236.32266798735012 240.30611215098926 96.59305585487573 237.8671226988223 94.15406640270876 377.5967348312967z" fill="rgba(104, 18, 243, 0.35)" class="triangle-float3"></path><path d="M405.5634620661933 548.2922760592919L327.94806237669604 473.3399558269799 252.99574214438405 550.9553555164773 330.61114183388133 625.9076757487892z" fill="rgba(104, 18, 243, 0.35)" class="triangle-float1"></path><path d="M137.27491566516977 228.97306428138387L11.987974345508967 372.822096825042 175.09820071740563 407.4922457158714z" fill="rgba(104, 18, 243, 0.35)" class="triangle-float2"></path><path d="M25.884,177.203C48.461,177.318,73.338,173.049,84.414,153.376C95.356,133.942,86.096,110.539,73.949,91.834C63.067,75.077,45.864,63.298,25.884,63.247C5.817,63.195,-11.767,74.701,-22.612,91.585C-34.556,110.182,-42.519,133.557,-31.626,152.788C-20.625,172.21,3.563,177.09,25.884,177.203" fill="rgba(104, 18, 243, 0.35)" class="triangle-float2"></path><path d="M271.461,284.965C296.1,285.808,320.694,275.016,332.933,253.616C345.097,232.347,340.307,206.663,328.531,185.176C316.187,162.652,297.13,142.356,271.461,141.452C244.472,140.502,219.144,156.786,206.978,180.896C195.799,203.05,203.796,228.552,216.866,249.646C229.102,269.393,248.244,284.171,271.461,284.965" fill="rgba(104, 18, 243, 0.35)" class="triangle-float1"></path><path d="M490.72615551627825 229.31051267655468L570.8909986105464 331.9168327911342 593.3324756308577 149.1456695822865z" fill="rgba(104, 18, 243, 0.35)" class="triangle-float3"></path><path d="M840.5936401964042 70.75628180896024L654.2689494865955 86.87866426425822 745.688987796223 222.4144448020516z" fill="rgba(104, 18, 243, 0.35)" class="triangle-float1"></path><path d="M230.3439774577426 327.089297655412L192.90141854740747 176.9153962750472 42.72751716704266 214.3579551853823 80.17007607737779 364.53185656574715z" fill="rgba(104, 18, 243, 0.35)" class="triangle-float2"></path><path d="M870.2987843512936 340.20330468197085L965.6469193126298 393.0556389301796 923.1511185995024 244.85516972063465z" fill="rgba(104, 18, 243, 0.35)" class="triangle-float1"></path><path d="M571.527,182.803C606.727,182.738,630.77,151.264,647.838,120.479C664.247,90.883,673.883,56.364,658.281,26.334C641.559,-5.851,607.76,-24.757,571.527,-26.396C532.013,-28.183,488.328,-17.246,470.027,17.82C452.528,51.349,474.909,88.549,494.727,120.762C513.21,150.805,536.254,182.868,571.527,182.803" fill="rgba(104, 18, 243, 0.35)" class="triangle-float3"></path><path d="M210.21565114355494 650.64497292808L304.4149202634057 516.1144744980011 169.8844218333267 421.91520537815035 75.68515271347599 556.4457038082293z" fill="rgba(104, 18, 243, 0.35)" class="triangle-float1"></path><path d="M731.594,386.342C749.87,386.541,770.671,385.23,779.88,369.443C789.131,353.584,780.665,334.423,770.975,318.829C761.962,304.324,748.669,291.965,731.594,291.737C714.174,291.504,699.38,302.854,690.346,317.751C680.911,333.31,675.72,352.816,685.097,368.41C694.272,383.668,713.791,386.148,731.594,386.342" fill="rgba(104, 18, 243, 0.35)" class="triangle-float3"></path><path d="M1436.287,348.193C1496.844,348.014,1556.333,319.269,1584.271,265.542C1610.517,215.069,1590.414,156.801,1561.194,107.989C1532.981,60.858,1491.199,16.93,1436.287,18.334C1383.026,19.696,1349.477,68.474,1321.977,114.106C1293.149,161.942,1262.272,216.234,1286.78,266.421C1313.495,321.128,1375.406,348.373,1436.287,348.193" fill="rgba(104, 18, 243, 0.35)" class="triangle-float1"></path><path d="M1353.5560499352282 193.5948624452222L1275.4928915827923 293.3151129240031 1384.8342351171402 310.63308042402355z" fill="rgba(104, 18, 243, 0.35)" class="triangle-float2"></path><path d="M154.907,368.639C213.129,372.109,275.258,354.51,304.954,304.311C335.07,253.403,324.614,187.72,290.531,139.378C260.921,97.382,206.291,91.875,154.907,91.494C102.565,91.106,43.347,92.862,15.754,137.341C-12.823,183.406,4.994,241.648,32.94,288.099C59.859,332.844,102.781,365.532,154.907,368.639" fill="rgba(104, 18, 243, 0.35)" class="triangle-float2"></path></g><defs><mask id="SvgjsMask1018"><rect width="1440" height="560" fill="#ffffff"></rect></mask><style>
                @keyframes float1 {
                    0%{transform: translate(0, 0)}
                    50%{transform: translate(-10px, 0)}
                    100%{transform: translate(0, 0)}
                }

                .triangle-float1 {
                    animation: float1 5s infinite;
                }

                @keyframes float2 {
                    0%{transform: translate(0, 0)}
                    50%{transform: translate(-5px, -5px)}
                    100%{transform: translate(0, 0)}
                }

                .triangle-float2 {
                    animation: float2 4s infinite;
                }

                @keyframes float3 {
                    0%{transform: translate(0, 0)}
                    50%{transform: translate(0, -10px)}
                    100%{transform: translate(0, 0)}
                }

                .triangle-float3 {
                    animation: float3 6s infinite;
                }
            </style></defs></svg>