<svg xmlns="http://www.w3.org/2000/svg" version="1.1" xmlns:xlink="http://www.w3.org/1999/xlink" xmlns:svgjs="http://svgjs.dev/svgjs" width="1440" height="560" preserveAspectRatio="none" viewBox="0 0 1440 560"><g mask="url(&quot;#SvgjsMask1068&quot;)" fill="none"><rect width="1440" height="560" x="0" y="0" fill="rgba(255, 255, 255, 1)"></rect><g mask="url(&quot;#SvgjsMask1069&quot;)"><path d="M1308 12L1380 12L1428 60L1428 396" stroke-width="4" stroke="rgba(104, 18, 243, 1)"></path><path d="M1302 12 a6 6 0 1 0 12 0 a6 6 0 1 0 -12 0zM1422 396 a6 6 0 1 0 12 0 a6 6 0 1 0 -12 0z" fill="rgba(104, 18, 243, 1)"></path><path d="M156 324L276 204L588 204L612 180" stroke-width="4" stroke="rgba(104, 18, 243, 1)"></path><path d="M150 324 a6 6 0 1 0 12 0 a6 6 0 1 0 -12 0zM606 180 a6 6 0 1 0 12 0 a6 6 0 1 0 -12 0z" fill="rgba(104, 18, 243, 1)"></path><path d="M492 36L492 84L588 180" stroke-width="4" stroke="rgba(104, 18, 243, 1)"></path><path d="M486 36 a6 6 0 1 0 12 0 a6 6 0 1 0 -12 0zM582 180 a6 6 0 1 0 12 0 a6 6 0 1 0 -12 0z" fill="rgba(104, 18, 243, 1)"></path><path d="M492 492L492 228" stroke-width="4" stroke="rgba(104, 18, 243, 1)"></path><path d="M486 492 a6 6 0 1 0 12 0 a6 6 0 1 0 -12 0zM486 228 a6 6 0 1 0 12 0 a6 6 0 1 0 -12 0z" fill="rgba(104, 18, 243, 1)"></path><path d="M1332 180L1332 324L1356 348L1356 372L1428 444L1428 564" stroke-width="4" stroke="rgba(104, 18, 243, 1)"></path><path d="M1326 180 a6 6 0 1 0 12 0 a6 6 0 1 0 -12 0zM1422 564 a6 6 0 1 0 12 0 a6 6 0 1 0 -12 0z" fill="rgba(104, 18, 243, 1)"></path><path d="M1404 156L1380 156L1236 12L1188 12L948 252" stroke-width="4" stroke="rgba(104, 18, 243, 1)"></path><path d="M1398 156 a6 6 0 1 0 12 0 a6 6 0 1 0 -12 0zM942 252 a6 6 0 1 0 12 0 a6 6 0 1 0 -12 0z" fill="rgba(104, 18, 243, 1)"></path><path d="M996 396L828 564L540 564" stroke-width="4" stroke="rgba(104, 18, 243, 1)"></path><path d="M990 396 a6 6 0 1 0 12 0 a6 6 0 1 0 -12 0zM534 564 a6 6 0 1 0 12 0 a6 6 0 1 0 -12 0z" fill="rgba(104, 18, 243, 1)"></path><path d="M828 228L972 372L972 396L828 540L684 540" stroke-width="4" stroke="rgba(104, 18, 243, 1)"></path><path d="M822 228 a6 6 0 1 0 12 0 a6 6 0 1 0 -12 0zM678 540 a6 6 0 1 0 12 0 a6 6 0 1 0 -12 0z" fill="rgba(104, 18, 243, 1)"></path><path d="M420 396L372 348L12 348" stroke-width="4" stroke="rgba(104, 18, 243, 1)"></path><path d="M414 396 a6 6 0 1 0 12 0 a6 6 0 1 0 -12 0zM6 348 a6 6 0 1 0 12 0 a6 6 0 1 0 -12 0z" fill="rgba(104, 18, 243, 1)"></path><path d="M588 12L588 156" stroke-width="4" stroke="rgba(104, 18, 243, 1)"></path><path d="M582 12 a6 6 0 1 0 12 0 a6 6 0 1 0 -12 0zM582 156 a6 6 0 1 0 12 0 a6 6 0 1 0 -12 0z" fill="rgba(104, 18, 243, 1)"></path><path d="M1332 468L1332 348L1116 132L1116 108L1188 36L1212 36" stroke-width="4" stroke="rgba(104, 18, 243, 1)"></path><path d="M1326 468 a6 6 0 1 0 12 0 a6 6 0 1 0 -12 0zM1206 36 a6 6 0 1 0 12 0 a6 6 0 1 0 -12 0z" fill="rgba(104, 18, 243, 1)"></path><path d="M132 252L132 12" stroke-width="4" stroke="rgba(104, 18, 243, 1)"></path><path d="M126 252 a6 6 0 1 0 12 0 a6 6 0 1 0 -12 0zM126 12 a6 6 0 1 0 12 0 a6 6 0 1 0 -12 0z" fill="rgba(104, 18, 243, 1)"></path><path d="M900 516L948 564L1044 564L1068 540L1212 540L1236 564L1332 564L1356 540" stroke-width="4" stroke="rgba(104, 18, 243, 1)"></path><path d="M894 516 a6 6 0 1 0 12 0 a6 6 0 1 0 -12 0zM1350 540 a6 6 0 1 0 12 0 a6 6 0 1 0 -12 0z" fill="rgba(104, 18, 243, 1)"></path><path d="M396 156L396 60L444 12L564 12" stroke-width="4" stroke="rgba(104, 18, 243, 1)"></path><path d="M390 156 a6 6 0 1 0 12 0 a6 6 0 1 0 -12 0zM558 12 a6 6 0 1 0 12 0 a6 6 0 1 0 -12 0z" fill="rgba(104, 18, 243, 1)"></path><path d="M132 564L180 516L180 372" stroke-width="4" stroke="rgba(104, 18, 243, 1)"></path><path d="M126 564 a6 6 0 1 0 12 0 a6 6 0 1 0 -12 0zM174 372 a6 6 0 1 0 12 0 a6 6 0 1 0 -12 0z" fill="rgba(104, 18, 243, 1)"></path><path d="M804 252L564 252L516 300L516 444L540 468" stroke-width="4" stroke="rgba(104, 18, 243, 1)"></path><path d="M798 252 a6 6 0 1 0 12 0 a6 6 0 1 0 -12 0zM534 468 a6 6 0 1 0 12 0 a6 6 0 1 0 -12 0z" fill="rgba(104, 18, 243, 1)"></path><path d="M348 12L348 180" stroke-width="4" stroke="rgba(104, 18, 243, 1)"></path><path d="M342 12 a6 6 0 1 0 12 0 a6 6 0 1 0 -12 0zM342 180 a6 6 0 1 0 12 0 a6 6 0 1 0 -12 0z" fill="rgba(104, 18, 243, 1)"></path><path d="M612 372L708 372L780 444L780 516" stroke-width="4" stroke="rgba(104, 18, 243, 1)"></path><path d="M606 372 a6 6 0 1 0 12 0 a6 6 0 1 0 -12 0zM774 516 a6 6 0 1 0 12 0 a6 6 0 1 0 -12 0z" fill="rgba(104, 18, 243, 1)"></path><path d="M732 36L804 36L828 12L852 12L996 156L996 180L972 204L828 204" stroke-width="4" stroke="rgba(104, 18, 243, 1)"></path><path d="M726 36 a6 6 0 1 0 12 0 a6 6 0 1 0 -12 0zM822 204 a6 6 0 1 0 12 0 a6 6 0 1 0 -12 0z" fill="rgba(104, 18, 243, 1)"></path><path d="M204 84L276 12L324 12" stroke-width="4" stroke="rgba(104, 18, 243, 1)"></path><path d="M198 84 a6 6 0 1 0 12 0 a6 6 0 1 0 -12 0zM318 12 a6 6 0 1 0 12 0 a6 6 0 1 0 -12 0z" fill="rgba(104, 18, 243, 1)"></path><path d="M1116 204L1164 204L1308 348L1308 540" stroke-width="4" stroke="rgba(104, 18, 243, 1)"></path><path d="M1110 204 a6 6 0 1 0 12 0 a6 6 0 1 0 -12 0zM1302 540 a6 6 0 1 0 12 0 a6 6 0 1 0 -12 0z" fill="rgba(104, 18, 243, 1)"></path><path d="M1164 348L1140 348L1020 228L996 228L924 300" stroke-width="4" stroke="rgba(104, 18, 243, 1)"></path><path d="M1158 348 a6 6 0 1 0 12 0 a6 6 0 1 0 -12 0zM918 300 a6 6 0 1 0 12 0 a6 6 0 1 0 -12 0z" fill="rgba(104, 18, 243, 1)"></path><path d="M12 468L108 372L156 372" stroke-width="4" stroke="rgba(104, 18, 243, 1)"></path><path d="M6 468 a6 6 0 1 0 12 0 a6 6 0 1 0 -12 0zM150 372 a6 6 0 1 0 12 0 a6 6 0 1 0 -12 0z" fill="rgba(104, 18, 243, 1)"></path><path d="M84 12L108 36L108 180L12 276L12 324" stroke-width="4" stroke="rgba(104, 18, 243, 1)"></path><path d="M78 12 a6 6 0 1 0 12 0 a6 6 0 1 0 -12 0zM6 324 a6 6 0 1 0 12 0 a6 6 0 1 0 -12 0z" fill="rgba(104, 18, 243, 1)"></path><path d="M1284 396L1284 444L1212 516L972 516L948 540" stroke-width="4" stroke="rgba(104, 18, 243, 1)"></path><path d="M1278 396 a6 6 0 1 0 12 0 a6 6 0 1 0 -12 0zM942 540 a6 6 0 1 0 12 0 a6 6 0 1 0 -12 0z" fill="rgba(104, 18, 243, 1)"></path><path d="M300 540L324 540L396 468L468 468" stroke-width="4" stroke="rgba(104, 18, 243, 1)"></path><path d="M294 540 a6 6 0 1 0 12 0 a6 6 0 1 0 -12 0zM462 468 a6 6 0 1 0 12 0 a6 6 0 1 0 -12 0z" fill="rgba(104, 18, 243, 1)"></path><path d="M252 180L252 60L276 36L324 36" stroke-width="4" stroke="rgba(104, 18, 243, 1)"></path><path d="M246 180 a6 6 0 1 0 12 0 a6 6 0 1 0 -12 0zM318 36 a6 6 0 1 0 12 0 a6 6 0 1 0 -12 0z" fill="rgba(104, 18, 243, 1)"></path><path d="M60 204L84 180L84 36L60 12L12 12" stroke-width="4" stroke="rgba(104, 18, 243, 1)"></path><path d="M54 204 a6 6 0 1 0 12 0 a6 6 0 1 0 -12 0zM6 12 a6 6 0 1 0 12 0 a6 6 0 1 0 -12 0z" fill="rgba(104, 18, 243, 1)"></path><path d="M612 228L660 180L780 180L876 84L876 60L852 36L828 36L708 156" stroke-width="4" stroke="rgba(104, 18, 243, 1)"></path><path d="M606 228 a6 6 0 1 0 12 0 a6 6 0 1 0 -12 0zM702 156 a6 6 0 1 0 12 0 a6 6 0 1 0 -12 0z" fill="rgba(104, 18, 243, 1)"></path><path d="M1164 372L1188 372L1260 444" stroke-width="4" stroke="rgba(104, 18, 243, 1)"></path><path d="M1158 372 a6 6 0 1 0 12 0 a6 6 0 1 0 -12 0zM1254 444 a6 6 0 1 0 12 0 a6 6 0 1 0 -12 0z" fill="rgba(104, 18, 243, 1)"></path><path d="M876 396L804 468L804 516" stroke-width="4" stroke="rgba(104, 18, 243, 1)"></path><path d="M870 396 a6 6 0 1 0 12 0 a6 6 0 1 0 -12 0zM798 516 a6 6 0 1 0 12 0 a6 6 0 1 0 -12 0z" fill="rgba(104, 18, 243, 1)"></path><path d="M324 228L276 276L276 324" stroke-width="4" stroke="rgba(104, 18, 243, 1)"></path><path d="M318 228 a6 6 0 1 0 12 0 a6 6 0 1 0 -12 0zM270 324 a6 6 0 1 0 12 0 a6 6 0 1 0 -12 0z" fill="rgba(104, 18, 243, 1)"></path><path d="M804 420L684 300L684 276" stroke-width="4" stroke="rgba(104, 18, 243, 1)"></path><path d="M798 420 a6 6 0 1 0 12 0 a6 6 0 1 0 -12 0zM678 276 a6 6 0 1 0 12 0 a6 6 0 1 0 -12 0z" fill="rgba(104, 18, 243, 1)"></path><path d="M1068 420L1140 492L1212 492L1236 468L1236 444L1212 420L1092 420L1044 372L1044 300" stroke-width="4" stroke="rgba(104, 18, 243, 1)"></path><path d="M1062 420 a6 6 0 1 0 12 0 a6 6 0 1 0 -12 0zM1038 300 a6 6 0 1 0 12 0 a6 6 0 1 0 -12 0z" fill="rgba(104, 18, 243, 1)"></path><path d="M996 108L900 12L876 12" stroke-width="4" stroke="rgba(104, 18, 243, 1)"></path><path d="M990 108 a6 6 0 1 0 12 0 a6 6 0 1 0 -12 0zM870 12 a6 6 0 1 0 12 0 a6 6 0 1 0 -12 0z" fill="rgba(104, 18, 243, 1)"></path><path d="M60 36L60 180L12 228L12 252" stroke-width="4" stroke="rgba(104, 18, 243, 1)"></path><path d="M54 36 a6 6 0 1 0 12 0 a6 6 0 1 0 -12 0zM6 252 a6 6 0 1 0 12 0 a6 6 0 1 0 -12 0z" fill="rgba(104, 18, 243, 1)"></path><path d="M804 108L780 108L732 156" stroke-width="4" stroke="rgba(104, 18, 243, 1)"></path><path d="M798 108 a6 6 0 1 0 12 0 a6 6 0 1 0 -12 0zM726 156 a6 6 0 1 0 12 0 a6 6 0 1 0 -12 0z" fill="rgba(104, 18, 243, 1)"></path><path d="M60 396L12 396" stroke-width="4" stroke="rgba(104, 18, 243, 1)"></path><path d="M54 396 a6 6 0 1 0 12 0 a6 6 0 1 0 -12 0zM6 396 a6 6 0 1 0 12 0 a6 6 0 1 0 -12 0z" fill="rgba(104, 18, 243, 1)"></path><path d="M780 276L732 324" stroke-width="4" stroke="rgba(104, 18, 243, 1)"></path><path d="M774 276 a6 6 0 1 0 12 0 a6 6 0 1 0 -12 0zM726 324 a6 6 0 1 0 12 0 a6 6 0 1 0 -12 0z" fill="rgba(104, 18, 243, 1)"></path><path d="M300 396L372 468" stroke-width="4" stroke="rgba(104, 18, 243, 1)"></path><path d="M294 396 a6 6 0 1 0 12 0 a6 6 0 1 0 -12 0zM366 468 a6 6 0 1 0 12 0 a6 6 0 1 0 -12 0z" fill="rgba(104, 18, 243, 1)"></path><path d="M1068 252L1020 204" stroke-width="4" stroke="rgba(104, 18, 243, 1)"></path><path d="M1062 252 a6 6 0 1 0 12 0 a6 6 0 1 0 -12 0zM1014 204 a6 6 0 1 0 12 0 a6 6 0 1 0 -12 0z" fill="rgba(104, 18, 243, 1)"></path><path d="M468 324L300 324" stroke-width="4" stroke="rgba(104, 18, 243, 1)"></path><path d="M462 324 a6 6 0 1 0 12 0 a6 6 0 1 0 -12 0zM294 324 a6 6 0 1 0 12 0 a6 6 0 1 0 -12 0z" fill="rgba(104, 18, 243, 1)"></path><path d="M12 540L36 564L108 564L156 516" stroke-width="4" stroke="rgba(104, 18, 243, 1)"></path><path d="M6 540 a6 6 0 1 0 12 0 a6 6 0 1 0 -12 0zM150 516 a6 6 0 1 0 12 0 a6 6 0 1 0 -12 0z" fill="rgba(104, 18, 243, 1)"></path><path d="M708 348L612 348L564 300L564 276" stroke-width="4" stroke="rgba(104, 18, 243, 1)"></path><path d="M702 348 a6 6 0 1 0 12 0 a6 6 0 1 0 -12 0zM558 276 a6 6 0 1 0 12 0 a6 6 0 1 0 -12 0z" fill="rgba(104, 18, 243, 1)"></path><path d="M996 348L972 348L948 324L948 300L996 252L1020 252L1044 276" stroke-width="4" stroke="rgba(104, 18, 243, 1)"></path><path d="M990 348 a6 6 0 1 0 12 0 a6 6 0 1 0 -12 0zM1038 276 a6 6 0 1 0 12 0 a6 6 0 1 0 -12 0z" fill="rgba(104, 18, 243, 1)"></path><path d="M756 492L756 444L708 396L540 396" stroke-width="4" stroke="rgba(104, 18, 243, 1)"></path><path d="M750 492 a6 6 0 1 0 12 0 a6 6 0 1 0 -12 0zM534 396 a6 6 0 1 0 12 0 a6 6 0 1 0 -12 0z" fill="rgba(104, 18, 243, 1)"></path><path d="M660 132L660 12" stroke-width="4" stroke="rgba(104, 18, 243, 1)"></path><path d="M654 132 a6 6 0 1 0 12 0 a6 6 0 1 0 -12 0zM654 12 a6 6 0 1 0 12 0 a6 6 0 1 0 -12 0z" fill="rgba(104, 18, 243, 1)"></path><path d="M1092 396L1188 396" stroke-width="4" stroke="rgba(104, 18, 243, 1)"></path><path d="M1086 396 a6 6 0 1 0 12 0 a6 6 0 1 0 -12 0zM1182 396 a6 6 0 1 0 12 0 a6 6 0 1 0 -12 0z" fill="rgba(104, 18, 243, 1)"></path><path d="M1140 228L1164 228L1284 348L1284 372L1260 396L1260 420" stroke-width="4" stroke="rgba(104, 18, 243, 1)"></path><path d="M1134 228 a6 6 0 1 0 12 0 a6 6 0 1 0 -12 0zM1254 420 a6 6 0 1 0 12 0 a6 6 0 1 0 -12 0z" fill="rgba(104, 18, 243, 1)"></path><path d="M444 396L468 420L468 444" stroke-width="4" stroke="rgba(104, 18, 243, 1)"></path><path d="M438 396 a6 6 0 1 0 12 0 a6 6 0 1 0 -12 0zM462 444 a6 6 0 1 0 12 0 a6 6 0 1 0 -12 0z" fill="rgba(104, 18, 243, 1)"></path><path d="M1044 468L1020 468L996 444L996 420L1020 396L1020 276" stroke-width="4" stroke="rgba(104, 18, 243, 1)"></path><path d="M1038 468 a6 6 0 1 0 12 0 a6 6 0 1 0 -12 0zM1014 276 a6 6 0 1 0 12 0 a6 6 0 1 0 -12 0z" fill="rgba(104, 18, 243, 1)"></path><path d="M1356 468L1332 492L1332 540" stroke-width="4" stroke="rgba(104, 18, 243, 1)"></path><path d="M1350 468 a6 6 0 1 0 12 0 a6 6 0 1 0 -12 0zM1326 540 a6 6 0 1 0 12 0 a6 6 0 1 0 -12 0z" fill="rgba(104, 18, 243, 1)"></path><path d="M204 324L204 300L228 276L252 276L300 228" stroke-width="4" stroke="rgba(104, 18, 243, 1)"></path><path d="M198 324 a6 6 0 1 0 12 0 a6 6 0 1 0 -12 0zM294 228 a6 6 0 1 0 12 0 a6 6 0 1 0 -12 0z" fill="rgba(104, 18, 243, 1)"></path><path d="M1332 156L1164 156L1140 132L1140 108L1188 60L1236 60L1308 132L1332 132" stroke-width="4" stroke="rgba(104, 18, 243, 1)"></path><path d="M1326 156 a6 6 0 1 0 12 0 a6 6 0 1 0 -12 0zM1326 132 a6 6 0 1 0 12 0 a6 6 0 1 0 -12 0z" fill="rgba(104, 18, 243, 1)"></path><path d="M204 372L372 372L444 444" stroke-width="4" stroke="rgba(104, 18, 243, 1)"></path><path d="M198 372 a6 6 0 1 0 12 0 a6 6 0 1 0 -12 0zM438 444 a6 6 0 1 0 12 0 a6 6 0 1 0 -12 0z" fill="rgba(104, 18, 243, 1)"></path><path d="M372 444L372 396" stroke-width="4" stroke="rgba(104, 18, 243, 1)"></path><path d="M366 444 a6 6 0 1 0 12 0 a6 6 0 1 0 -12 0zM366 396 a6 6 0 1 0 12 0 a6 6 0 1 0 -12 0z" fill="rgba(104, 18, 243, 1)"></path><path d="M1068 60L972 60L924 12" stroke-width="4" stroke="rgba(104, 18, 243, 1)"></path><path d="M1062 60 a6 6 0 1 0 12 0 a6 6 0 1 0 -12 0zM918 12 a6 6 0 1 0 12 0 a6 6 0 1 0 -12 0z" fill="rgba(104, 18, 243, 1)"></path><path d="M276 132L324 180" stroke-width="4" stroke="rgba(104, 18, 243, 1)"></path><path d="M270 132 a6 6 0 1 0 12 0 a6 6 0 1 0 -12 0zM318 180 a6 6 0 1 0 12 0 a6 6 0 1 0 -12 0z" fill="rgba(104, 18, 243, 1)"></path><path d="M156 156L156 12" stroke-width="4" stroke="rgba(104, 18, 243, 1)"></path><path d="M150 156 a6 6 0 1 0 12 0 a6 6 0 1 0 -12 0zM150 12 a6 6 0 1 0 12 0 a6 6 0 1 0 -12 0z" fill="rgba(104, 18, 243, 1)"></path><path d="M324 564L276 564L204 492L204 396" stroke-width="4" stroke="rgba(104, 18, 243, 1)"></path><path d="M318 564 a6 6 0 1 0 12 0 a6 6 0 1 0 -12 0zM198 396 a6 6 0 1 0 12 0 a6 6 0 1 0 -12 0z" fill="rgba(104, 18, 243, 1)"></path><path d="M732 84L756 60L780 60" stroke-width="4" stroke="rgba(104, 18, 243, 1)"></path><path d="M726 84 a6 6 0 1 0 12 0 a6 6 0 1 0 -12 0zM774 60 a6 6 0 1 0 12 0 a6 6 0 1 0 -12 0z" fill="rgba(104, 18, 243, 1)"></path><path d="M444 516L420 492L396 492L348 540L348 564" stroke-width="4" stroke="rgba(104, 18, 243, 1)"></path><path d="M438 516 a6 6 0 1 0 12 0 a6 6 0 1 0 -12 0zM342 564 a6 6 0 1 0 12 0 a6 6 0 1 0 -12 0z" fill="rgba(104, 18, 243, 1)"></path><path d="M84 300L84 228L108 204" stroke-width="4" stroke="rgba(104, 18, 243, 1)"></path><path d="M78 300 a6 6 0 1 0 12 0 a6 6 0 1 0 -12 0zM102 204 a6 6 0 1 0 12 0 a6 6 0 1 0 -12 0z" fill="rgba(104, 18, 243, 1)"></path><path d="M564 468L636 540L660 540L732 468L732 444L708 420L540 420" stroke-width="4" stroke="rgba(104, 18, 243, 1)"></path><path d="M558 468 a6 6 0 1 0 12 0 a6 6 0 1 0 -12 0zM534 420 a6 6 0 1 0 12 0 a6 6 0 1 0 -12 0z" fill="rgba(104, 18, 243, 1)"></path><path d="M900 180L900 84" stroke-width="4" stroke="rgba(104, 18, 243, 1)"></path><path d="M894 180 a6 6 0 1 0 12 0 a6 6 0 1 0 -12 0zM894 84 a6 6 0 1 0 12 0 a6 6 0 1 0 -12 0z" fill="rgba(104, 18, 243, 1)"></path><path d="M1212 372L1212 324L1068 180L1044 180" stroke-width="4" stroke="rgba(104, 18, 243, 1)"></path><path d="M1206 372 a6 6 0 1 0 12 0 a6 6 0 1 0 -12 0zM1038 180 a6 6 0 1 0 12 0 a6 6 0 1 0 -12 0z" fill="rgba(104, 18, 243, 1)"></path><path d="M1116 492L1044 420L1044 396" stroke-width="4" stroke="rgba(104, 18, 243, 1)"></path><path d="M1110 492 a6 6 0 1 0 12 0 a6 6 0 1 0 -12 0zM1038 396 a6 6 0 1 0 12 0 a6 6 0 1 0 -12 0z" fill="rgba(104, 18, 243, 1)"></path><path d="M156 396L132 396L12 516" stroke-width="4" stroke="rgba(104, 18, 243, 1)"></path><path d="M150 396 a6 6 0 1 0 12 0 a6 6 0 1 0 -12 0zM6 516 a6 6 0 1 0 12 0 a6 6 0 1 0 -12 0z" fill="rgba(104, 18, 243, 1)"></path><path d="M444 108L516 180L564 180" stroke-width="4" stroke="rgba(104, 18, 243, 1)"></path><path d="M438 108 a6 6 0 1 0 12 0 a6 6 0 1 0 -12 0zM558 180 a6 6 0 1 0 12 0 a6 6 0 1 0 -12 0z" fill="rgba(104, 18, 243, 1)"></path><path d="M1068 372L1068 300" stroke-width="4" stroke="rgba(104, 18, 243, 1)"></path><path d="M1062 372 a6 6 0 1 0 12 0 a6 6 0 1 0 -12 0zM1062 300 a6 6 0 1 0 12 0 a6 6 0 1 0 -12 0z" fill="rgba(104, 18, 243, 1)"></path><path d="M252 420L300 420L348 468L348 492L324 516L252 516L228 492L228 396" stroke-width="4" stroke="rgba(104, 18, 243, 1)"></path><path d="M246 420 a6 6 0 1 0 12 0 a6 6 0 1 0 -12 0zM222 396 a6 6 0 1 0 12 0 a6 6 0 1 0 -12 0z" fill="rgba(104, 18, 243, 1)"></path><path d="M276 60L300 60L324 84L324 108L300 132" stroke-width="4" stroke="rgba(104, 18, 243, 1)"></path><path d="M270 60 a6 6 0 1 0 12 0 a6 6 0 1 0 -12 0zM294 132 a6 6 0 1 0 12 0 a6 6 0 1 0 -12 0z" fill="rgba(104, 18, 243, 1)"></path><path d="M804 204L876 132L876 108" stroke-width="4" stroke="rgba(104, 18, 243, 1)"></path><path d="M798 204 a6 6 0 1 0 12 0 a6 6 0 1 0 -12 0zM870 108 a6 6 0 1 0 12 0 a6 6 0 1 0 -12 0z" fill="rgba(104, 18, 243, 1)"></path><path d="M852 372L780 300" stroke-width="4" stroke="rgba(104, 18, 243, 1)"></path><path d="M846 372 a6 6 0 1 0 12 0 a6 6 0 1 0 -12 0zM774 300 a6 6 0 1 0 12 0 a6 6 0 1 0 -12 0z" fill="rgba(104, 18, 243, 1)"></path><path d="M804 300L924 420" stroke-width="4" stroke="rgba(104, 18, 243, 1)"></path><path d="M798 300 a6 6 0 1 0 12 0 a6 6 0 1 0 -12 0zM918 420 a6 6 0 1 0 12 0 a6 6 0 1 0 -12 0z" fill="rgba(104, 18, 243, 1)"></path><path d="M1116 300L1092 276L1092 228L1068 204L1044 204" stroke-width="4" stroke="rgba(104, 18, 243, 1)"></path><path d="M1110 300 a6 6 0 1 0 12 0 a6 6 0 1 0 -12 0zM1038 204 a6 6 0 1 0 12 0 a6 6 0 1 0 -12 0z" fill="rgba(104, 18, 243, 1)"></path><path d="M540 372L588 372" stroke-width="4" stroke="rgba(104, 18, 243, 1)"></path><path d="M534 372 a6 6 0 1 0 12 0 a6 6 0 1 0 -12 0zM582 372 a6 6 0 1 0 12 0 a6 6 0 1 0 -12 0z" fill="rgba(104, 18, 243, 1)"></path><path d="M516 540L612 540" stroke-width="4" stroke="rgba(104, 18, 243, 1)"></path><path d="M510 540 a6 6 0 1 0 12 0 a6 6 0 1 0 -12 0zM606 540 a6 6 0 1 0 12 0 a6 6 0 1 0 -12 0z" fill="rgba(104, 18, 243, 1)"></path><path d="M1356 108L1356 36" stroke-width="4" stroke="rgba(104, 18, 243, 1)"></path><path d="M1350 108 a6 6 0 1 0 12 0 a6 6 0 1 0 -12 0zM1350 36 a6 6 0 1 0 12 0 a6 6 0 1 0 -12 0z" fill="rgba(104, 18, 243, 1)"></path><path d="M204 108L204 204L228 228" stroke-width="4" stroke="rgba(104, 18, 243, 1)"></path><path d="M198 108 a6 6 0 1 0 12 0 a6 6 0 1 0 -12 0zM222 228 a6 6 0 1 0 12 0 a6 6 0 1 0 -12 0z" fill="rgba(104, 18, 243, 1)"></path><path d="M420 540L396 564L372 564" stroke-width="4" stroke="rgba(104, 18, 243, 1)"></path><path d="M414 540 a6 6 0 1 0 12 0 a6 6 0 1 0 -12 0zM366 564 a6 6 0 1 0 12 0 a6 6 0 1 0 -12 0z" fill="rgba(104, 18, 243, 1)"></path><path d="M420 180L468 180" stroke-width="4" stroke="rgba(104, 18, 243, 1)"></path><path d="M414 180 a6 6 0 1 0 12 0 a6 6 0 1 0 -12 0zM462 180 a6 6 0 1 0 12 0 a6 6 0 1 0 -12 0z" fill="rgba(104, 18, 243, 1)"></path><path d="M420 60L420 156" stroke-width="4" stroke="rgba(104, 18, 243, 1)"></path><path d="M414 60 a6 6 0 1 0 12 0 a6 6 0 1 0 -12 0zM414 156 a6 6 0 1 0 12 0 a6 6 0 1 0 -12 0z" fill="rgba(104, 18, 243, 1)"></path><path d="M684 84L684 156" stroke-width="4" stroke="rgba(104, 18, 243, 1)"></path><path d="M678 84 a6 6 0 1 0 12 0 a6 6 0 1 0 -12 0zM678 156 a6 6 0 1 0 12 0 a6 6 0 1 0 -12 0z" fill="rgba(104, 18, 243, 1)"></path><path d="M852 276L804 276" stroke-width="4" stroke="rgba(104, 18, 243, 1)"></path><path d="M846 276 a6 6 0 1 0 12 0 a6 6 0 1 0 -12 0zM798 276 a6 6 0 1 0 12 0 a6 6 0 1 0 -12 0z" fill="rgba(104, 18, 243, 1)"></path><path d="M420 228L420 300" stroke-width="4" stroke="rgba(104, 18, 243, 1)"></path><path d="M414 228 a6 6 0 1 0 12 0 a6 6 0 1 0 -12 0zM414 300 a6 6 0 1 0 12 0 a6 6 0 1 0 -12 0z" fill="rgba(104, 18, 243, 1)"></path><path d="M684 12L732 60" stroke-width="4" stroke="rgba(104, 18, 243, 1)"></path><path d="M678 12 a6 6 0 1 0 12 0 a6 6 0 1 0 -12 0zM726 60 a6 6 0 1 0 12 0 a6 6 0 1 0 -12 0z" fill="rgba(104, 18, 243, 1)"></path><path d="M612 108L612 12" stroke-width="4" stroke="rgba(104, 18, 243, 1)"></path><path d="M606 108 a6 6 0 1 0 12 0 a6 6 0 1 0 -12 0zM606 12 a6 6 0 1 0 12 0 a6 6 0 1 0 -12 0z" fill="rgba(104, 18, 243, 1)"></path><path d="M132 324L204 252L204 228L156 180" stroke-width="4" stroke="rgba(104, 18, 243, 1)"></path><path d="M126 324 a6 6 0 1 0 12 0 a6 6 0 1 0 -12 0zM150 180 a6 6 0 1 0 12 0 a6 6 0 1 0 -12 0z" fill="rgba(104, 18, 243, 1)"></path><path d="M108 276L108 324" stroke-width="4" stroke="rgba(104, 18, 243, 1)"></path><path d="M102 276 a6 6 0 1 0 12 0 a6 6 0 1 0 -12 0zM102 324 a6 6 0 1 0 12 0 a6 6 0 1 0 -12 0z" fill="rgba(104, 18, 243, 1)"></path><path d="M468 492L492 516L516 516L540 492L564 492L588 516" stroke-width="4" stroke="rgba(104, 18, 243, 1)"></path><path d="M462 492 a6 6 0 1 0 12 0 a6 6 0 1 0 -12 0zM582 516 a6 6 0 1 0 12 0 a6 6 0 1 0 -12 0z" fill="rgba(104, 18, 243, 1)"></path><path d="M84 468L132 420L156 420" stroke-width="4" stroke="rgba(104, 18, 243, 1)"></path><path d="M78 468 a6 6 0 1 0 12 0 a6 6 0 1 0 -12 0zM150 420 a6 6 0 1 0 12 0 a6 6 0 1 0 -12 0z" fill="rgba(104, 18, 243, 1)"></path><path d="M684 444L684 492L660 516L636 516L564 444L540 444" stroke-width="4" stroke="rgba(104, 18, 243, 1)"></path><path d="M678 444 a6 6 0 1 0 12 0 a6 6 0 1 0 -12 0zM534 444 a6 6 0 1 0 12 0 a6 6 0 1 0 -12 0z" fill="rgba(104, 18, 243, 1)"></path><path d="M540 228L516 252L516 276" stroke-width="4" stroke="rgba(104, 18, 243, 1)"></path><path d="M534 228 a6 6 0 1 0 12 0 a6 6 0 1 0 -12 0zM510 276 a6 6 0 1 0 12 0 a6 6 0 1 0 -12 0z" fill="rgba(104, 18, 243, 1)"></path><path d="M444 276L444 228" stroke-width="4" stroke="rgba(104, 18, 243, 1)"></path><path d="M438 276 a6 6 0 1 0 12 0 a6 6 0 1 0 -12 0zM438 228 a6 6 0 1 0 12 0 a6 6 0 1 0 -12 0z" fill="rgba(104, 18, 243, 1)"></path><path d="M1356 420L1356 444L1380 468L1404 468" stroke-width="4" stroke="rgba(104, 18, 243, 1)"></path><path d="M1350 420 a6 6 0 1 0 12 0 a6 6 0 1 0 -12 0zM1398 468 a6 6 0 1 0 12 0 a6 6 0 1 0 -12 0z" fill="rgba(104, 18, 243, 1)"></path><path d="M1140 468L1188 468" stroke-width="4" stroke="rgba(104, 18, 243, 1)"></path><path d="M1134 468 a6 6 0 1 0 12 0 a6 6 0 1 0 -12 0zM1182 468 a6 6 0 1 0 12 0 a6 6 0 1 0 -12 0z" fill="rgba(104, 18, 243, 1)"></path><path d="M1092 84L1164 12" stroke-width="4" stroke="rgba(104, 18, 243, 1)"></path><path d="M1086 84 a6 6 0 1 0 12 0 a6 6 0 1 0 -12 0zM1158 12 a6 6 0 1 0 12 0 a6 6 0 1 0 -12 0z" fill="rgba(104, 18, 243, 1)"></path><path d="M300 444L252 444" stroke-width="4" stroke="rgba(104, 18, 243, 1)"></path><path d="M294 444 a6 6 0 1 0 12 0 a6 6 0 1 0 -12 0zM246 444 a6 6 0 1 0 12 0 a6 6 0 1 0 -12 0z" fill="rgba(104, 18, 243, 1)"></path><path d="M828 492L852 492L876 468" stroke-width="4" stroke="rgba(104, 18, 243, 1)"></path><path d="M822 492 a6 6 0 1 0 12 0 a6 6 0 1 0 -12 0zM870 468 a6 6 0 1 0 12 0 a6 6 0 1 0 -12 0z" fill="rgba(104, 18, 243, 1)"></path><path d="M1380 180L1380 252L1404 276L1404 372" stroke-width="4" stroke="rgba(104, 18, 243, 1)"></path><path d="M1374 180 a6 6 0 1 0 12 0 a6 6 0 1 0 -12 0zM1398 372 a6 6 0 1 0 12 0 a6 6 0 1 0 -12 0z" fill="rgba(104, 18, 243, 1)"></path><path d="M756 348L804 348L852 396" stroke-width="4" stroke="rgba(104, 18, 243, 1)"></path><path d="M750 348 a6 6 0 1 0 12 0 a6 6 0 1 0 -12 0zM846 396 a6 6 0 1 0 12 0 a6 6 0 1 0 -12 0z" fill="rgba(104, 18, 243, 1)"></path><path d="M60 492L60 540" stroke-width="4" stroke="rgba(104, 18, 243, 1)"></path><path d="M54 492 a6 6 0 1 0 12 0 a6 6 0 1 0 -12 0zM54 540 a6 6 0 1 0 12 0 a6 6 0 1 0 -12 0z" fill="rgba(104, 18, 243, 1)"></path><path d="M300 300L300 276L348 228L396 228" stroke-width="4" stroke="rgba(104, 18, 243, 1)"></path><path d="M294 300 a6 6 0 1 0 12 0 a6 6 0 1 0 -12 0zM390 228 a6 6 0 1 0 12 0 a6 6 0 1 0 -12 0z" fill="rgba(104, 18, 243, 1)"></path><path d="M372 540L396 516L420 516" stroke-width="4" stroke="rgba(104, 18, 243, 1)"></path><path d="M366 540 a6 6 0 1 0 12 0 a6 6 0 1 0 -12 0zM414 516 a6 6 0 1 0 12 0 a6 6 0 1 0 -12 0z" fill="rgba(104, 18, 243, 1)"></path><path d="M1092 36L972 36L948 12" stroke-width="4" stroke="rgba(104, 18, 243, 1)"></path><path d="M1086 36 a6 6 0 1 0 12 0 a6 6 0 1 0 -12 0zM942 12 a6 6 0 1 0 12 0 a6 6 0 1 0 -12 0z" fill="rgba(104, 18, 243, 1)"></path><path d="M804 372L804 396L828 420" stroke-width="4" stroke="rgba(104, 18, 243, 1)"></path><path d="M798 372 a6 6 0 1 0 12 0 a6 6 0 1 0 -12 0zM822 420 a6 6 0 1 0 12 0 a6 6 0 1 0 -12 0z" fill="rgba(104, 18, 243, 1)"></path><path d="M1260 204L1284 228L1284 252" stroke-width="4" stroke="rgba(104, 18, 243, 1)"></path><path d="M1254 204 a6 6 0 1 0 12 0 a6 6 0 1 0 -12 0zM1278 252 a6 6 0 1 0 12 0 a6 6 0 1 0 -12 0z" fill="rgba(104, 18, 243, 1)"></path><path d="M1284 540L1260 516L1260 492L1284 468" stroke-width="4" stroke="rgba(104, 18, 243, 1)"></path><path d="M1278 540 a6 6 0 1 0 12 0 a6 6 0 1 0 -12 0zM1278 468 a6 6 0 1 0 12 0 a6 6 0 1 0 -12 0z" fill="rgba(104, 18, 243, 1)"></path><path d="M228 204L228 84" stroke-width="4" stroke="rgba(104, 18, 243, 1)"></path><path d="M222 204 a6 6 0 1 0 12 0 a6 6 0 1 0 -12 0zM222 84 a6 6 0 1 0 12 0 a6 6 0 1 0 -12 0z" fill="rgba(104, 18, 243, 1)"></path><path d="M732 204L756 228L804 228" stroke-width="4" stroke="rgba(104, 18, 243, 1)"></path><path d="M726 204 a6 6 0 1 0 12 0 a6 6 0 1 0 -12 0zM798 228 a6 6 0 1 0 12 0 a6 6 0 1 0 -12 0z" fill="rgba(104, 18, 243, 1)"></path><path d="M1356 156L1356 252" stroke-width="4" stroke="rgba(104, 18, 243, 1)"></path><path d="M1350 156 a6 6 0 1 0 12 0 a6 6 0 1 0 -12 0zM1350 252 a6 6 0 1 0 12 0 a6 6 0 1 0 -12 0z" fill="rgba(104, 18, 243, 1)"></path><path d="M372 60L372 12" stroke-width="4" stroke="rgba(104, 18, 243, 1)"></path><path d="M366 60 a6 6 0 1 0 12 0 a6 6 0 1 0 -12 0zM366 12 a6 6 0 1 0 12 0 a6 6 0 1 0 -12 0z" fill="rgba(104, 18, 243, 1)"></path><path d="M1284 132L1164 132" stroke-width="4" stroke="rgba(104, 18, 243, 1)"></path><path d="M1278 132 a6 6 0 1 0 12 0 a6 6 0 1 0 -12 0zM1158 132 a6 6 0 1 0 12 0 a6 6 0 1 0 -12 0z" fill="rgba(104, 18, 243, 1)"></path><path d="M1140 564L1212 564" stroke-width="4" stroke="rgba(104, 18, 243, 1)"></path><path d="M1134 564 a6 6 0 1 0 12 0 a6 6 0 1 0 -12 0zM1206 564 a6 6 0 1 0 12 0 a6 6 0 1 0 -12 0z" fill="rgba(104, 18, 243, 1)"></path><path d="M12 60L12 132" stroke-width="4" stroke="rgba(104, 18, 243, 1)"></path><path d="M6 60 a6 6 0 1 0 12 0 a6 6 0 1 0 -12 0zM6 132 a6 6 0 1 0 12 0 a6 6 0 1 0 -12 0z" fill="rgba(104, 18, 243, 1)"></path><path d="M60 372L12 372" stroke-width="4" stroke="rgba(104, 18, 243, 1)"></path><path d="M54 372 a6 6 0 1 0 12 0 a6 6 0 1 0 -12 0zM6 372 a6 6 0 1 0 12 0 a6 6 0 1 0 -12 0z" fill="rgba(104, 18, 243, 1)"></path><path d="M252 564L156 564" stroke-width="4" stroke="rgba(104, 18, 243, 1)"></path><path d="M246 564 a6 6 0 1 0 12 0 a6 6 0 1 0 -12 0zM150 564 a6 6 0 1 0 12 0 a6 6 0 1 0 -12 0z" fill="rgba(104, 18, 243, 1)"></path><path d="M900 348L948 396" stroke-width="4" stroke="rgba(104, 18, 243, 1)"></path><path d="M894 348 a6 6 0 1 0 12 0 a6 6 0 1 0 -12 0zM942 396 a6 6 0 1 0 12 0 a6 6 0 1 0 -12 0z" fill="rgba(104, 18, 243, 1)"></path><path d="M1380 348L1380 300" stroke-width="4" stroke="rgba(104, 18, 243, 1)"></path><path d="M1374 348 a6 6 0 1 0 12 0 a6 6 0 1 0 -12 0zM1374 300 a6 6 0 1 0 12 0 a6 6 0 1 0 -12 0z" fill="rgba(104, 18, 243, 1)"></path><path d="M732 228L708 204L660 204L636 228" stroke-width="4" stroke="rgba(104, 18, 243, 1)"></path><path d="M726 228 a6 6 0 1 0 12 0 a6 6 0 1 0 -12 0zM630 228 a6 6 0 1 0 12 0 a6 6 0 1 0 -12 0z" fill="rgba(104, 18, 243, 1)"></path><path d="M492 132L516 132L540 156" stroke-width="4" stroke="rgba(104, 18, 243, 1)"></path><path d="M486 132 a6 6 0 1 0 12 0 a6 6 0 1 0 -12 0zM534 156 a6 6 0 1 0 12 0 a6 6 0 1 0 -12 0z" fill="rgba(104, 18, 243, 1)"></path><path d="M180 36L228 36" stroke-width="4" stroke="rgba(104, 18, 243, 1)"></path><path d="M174 36 a6 6 0 1 0 12 0 a6 6 0 1 0 -12 0zM222 36 a6 6 0 1 0 12 0 a6 6 0 1 0 -12 0z" fill="rgba(104, 18, 243, 1)"></path><path d="M900 228L852 228" stroke-width="4" stroke="rgba(104, 18, 243, 1)"></path><path d="M894 228 a6 6 0 1 0 12 0 a6 6 0 1 0 -12 0zM846 228 a6 6 0 1 0 12 0 a6 6 0 1 0 -12 0z" fill="rgba(104, 18, 243, 1)"></path><path d="M156 468L108 468L84 492L84 516" stroke-width="4" stroke="rgba(104, 18, 243, 1)"></path><path d="M150 468 a6 6 0 1 0 12 0 a6 6 0 1 0 -12 0zM78 516 a6 6 0 1 0 12 0 a6 6 0 1 0 -12 0z" fill="rgba(104, 18, 243, 1)"></path><path d="M564 132L564 36" stroke-width="4" stroke="rgba(104, 18, 243, 1)"></path><path d="M558 132 a6 6 0 1 0 12 0 a6 6 0 1 0 -12 0zM558 36 a6 6 0 1 0 12 0 a6 6 0 1 0 -12 0z" fill="rgba(104, 18, 243, 1)"></path><path d="M1140 324L1140 276" stroke-width="4" stroke="rgba(104, 18, 243, 1)"></path><path d="M1134 324 a6 6 0 1 0 12 0 a6 6 0 1 0 -12 0zM1134 276 a6 6 0 1 0 12 0 a6 6 0 1 0 -12 0z" fill="rgba(104, 18, 243, 1)"></path><path d="M396 300L348 252" stroke-width="4" stroke="rgba(104, 18, 243, 1)"></path><path d="M390 300 a6 6 0 1 0 12 0 a6 6 0 1 0 -12 0zM342 252 a6 6 0 1 0 12 0 a6 6 0 1 0 -12 0z" fill="rgba(104, 18, 243, 1)"></path><path d="M1044 492L948 492" stroke-width="4" stroke="rgba(104, 18, 243, 1)"></path><path d="M1038 492 a6 6 0 1 0 12 0 a6 6 0 1 0 -12 0zM942 492 a6 6 0 1 0 12 0 a6 6 0 1 0 -12 0z" fill="rgba(104, 18, 243, 1)"></path><path d="M1044 540L972 540" stroke-width="4" stroke="rgba(104, 18, 243, 1)"></path><path d="M1038 540 a6 6 0 1 0 12 0 a6 6 0 1 0 -12 0zM966 540 a6 6 0 1 0 12 0 a6 6 0 1 0 -12 0z" fill="rgba(104, 18, 243, 1)"></path><path d="M708 84L684 60L684 36" stroke-width="4" stroke="rgba(104, 18, 243, 1)"></path><path d="M702 84 a6 6 0 1 0 12 0 a6 6 0 1 0 -12 0zM678 36 a6 6 0 1 0 12 0 a6 6 0 1 0 -12 0z" fill="rgba(104, 18, 243, 1)"></path><path d="M1212 204L1236 204L1260 180" stroke-width="4" stroke="rgba(104, 18, 243, 1)"></path><path d="M1206 204 a6 6 0 1 0 12 0 a6 6 0 1 0 -12 0zM1254 180 a6 6 0 1 0 12 0 a6 6 0 1 0 -12 0z" fill="rgba(104, 18, 243, 1)"></path><path d="M828 300L876 300L900 324" stroke-width="4" stroke="rgba(104, 18, 243, 1)"></path><path d="M822 300 a6 6 0 1 0 12 0 a6 6 0 1 0 -12 0zM894 324 a6 6 0 1 0 12 0 a6 6 0 1 0 -12 0z" fill="rgba(104, 18, 243, 1)"></path><path d="M1356 564L1404 516L1404 492" stroke-width="4" stroke="rgba(104, 18, 243, 1)"></path><path d="M1350 564 a6 6 0 1 0 12 0 a6 6 0 1 0 -12 0zM1398 492 a6 6 0 1 0 12 0 a6 6 0 1 0 -12 0z" fill="rgba(104, 18, 243, 1)"></path><path d="M612 132L636 108L636 60" stroke-width="4" stroke="rgba(104, 18, 243, 1)"></path><path d="M606 132 a6 6 0 1 0 12 0 a6 6 0 1 0 -12 0zM630 60 a6 6 0 1 0 12 0 a6 6 0 1 0 -12 0z" fill="rgba(104, 18, 243, 1)"></path><path d="M1260 372L1236 348L1236 324" stroke-width="4" stroke="rgba(104, 18, 243, 1)"></path><path d="M1254 372 a6 6 0 1 0 12 0 a6 6 0 1 0 -12 0zM1230 324 a6 6 0 1 0 12 0 a6 6 0 1 0 -12 0z" fill="rgba(104, 18, 243, 1)"></path><path d="M708 228L660 228" stroke-width="4" stroke="rgba(104, 18, 243, 1)"></path><path d="M702 228 a6 6 0 1 0 12 0 a6 6 0 1 0 -12 0zM654 228 a6 6 0 1 0 12 0 a6 6 0 1 0 -12 0z" fill="rgba(104, 18, 243, 1)"></path><path d="M252 492L276 468L324 468" stroke-width="4" stroke="rgba(104, 18, 243, 1)"></path><path d="M246 492 a6 6 0 1 0 12 0 a6 6 0 1 0 -12 0zM318 468 a6 6 0 1 0 12 0 a6 6 0 1 0 -12 0z" fill="rgba(104, 18, 243, 1)"></path><path d="M468 36L468 108" stroke-width="4" stroke="rgba(104, 18, 243, 1)"></path><path d="M462 36 a6 6 0 1 0 12 0 a6 6 0 1 0 -12 0zM462 108 a6 6 0 1 0 12 0 a6 6 0 1 0 -12 0z" fill="rgba(104, 18, 243, 1)"></path><path d="M324 276L348 300L372 300" stroke-width="4" stroke="rgba(104, 18, 243, 1)"></path><path d="M318 276 a6 6 0 1 0 12 0 a6 6 0 1 0 -12 0zM366 300 a6 6 0 1 0 12 0 a6 6 0 1 0 -12 0z" fill="rgba(104, 18, 243, 1)"></path><path d="M1044 84L996 84" stroke-width="4" stroke="rgba(104, 18, 243, 1)"></path><path d="M1038 84 a6 6 0 1 0 12 0 a6 6 0 1 0 -12 0zM990 84 a6 6 0 1 0 12 0 a6 6 0 1 0 -12 0z" fill="rgba(104, 18, 243, 1)"></path><path d="M1236 84L1212 84L1188 108" stroke-width="4" stroke="rgba(104, 18, 243, 1)"></path><path d="M1230 84 a6 6 0 1 0 12 0 a6 6 0 1 0 -12 0zM1182 108 a6 6 0 1 0 12 0 a6 6 0 1 0 -12 0z" fill="rgba(104, 18, 243, 1)"></path><path d="M1188 348L1164 324L1164 300" stroke-width="4" stroke="rgba(104, 18, 243, 1)"></path><path d="M1182 348 a6 6 0 1 0 12 0 a6 6 0 1 0 -12 0zM1158 300 a6 6 0 1 0 12 0 a6 6 0 1 0 -12 0z" fill="rgba(104, 18, 243, 1)"></path><path d="M516 36L516 84L540 108" stroke-width="4" stroke="rgba(104, 18, 243, 1)"></path><path d="M510 36 a6 6 0 1 0 12 0 a6 6 0 1 0 -12 0zM534 108 a6 6 0 1 0 12 0 a6 6 0 1 0 -12 0z" fill="rgba(104, 18, 243, 1)"></path><path d="M1380 36L1404 60L1404 108" stroke-width="4" stroke="rgba(104, 18, 243, 1)"></path><path d="M1374 36 a6 6 0 1 0 12 0 a6 6 0 1 0 -12 0zM1398 108 a6 6 0 1 0 12 0 a6 6 0 1 0 -12 0z" fill="rgba(104, 18, 243, 1)"></path><path d="M540 36L540 84" stroke-width="4" stroke="rgba(104, 18, 243, 1)"></path><path d="M534 36 a6 6 0 1 0 12 0 a6 6 0 1 0 -12 0zM534 84 a6 6 0 1 0 12 0 a6 6 0 1 0 -12 0z" fill="rgba(104, 18, 243, 1)"></path></g></g><defs><mask id="SvgjsMask1068"><rect width="1440" height="560" fill="#ffffff"></rect></mask><mask id="SvgjsMask1069"><rect width="1440" height="560" fill="white"></rect><path d="M1305 12 a3 3 0 1 0 6 0 a3 3 0 1 0 -6 0zM1425 396 a3 3 0 1 0 6 0 a3 3 0 1 0 -6 0z" fill="black"></path><path d="M153 324 a3 3 0 1 0 6 0 a3 3 0 1 0 -6 0zM609 180 a3 3 0 1 0 6 0 a3 3 0 1 0 -6 0z" fill="black"></path><path d="M489 36 a3 3 0 1 0 6 0 a3 3 0 1 0 -6 0zM585 180 a3 3 0 1 0 6 0 a3 3 0 1 0 -6 0z" fill="black"></path><path d="M489 492 a3 3 0 1 0 6 0 a3 3 0 1 0 -6 0zM489 228 a3 3 0 1 0 6 0 a3 3 0 1 0 -6 0z" fill="black"></path><path d="M1329 180 a3 3 0 1 0 6 0 a3 3 0 1 0 -6 0zM1425 564 a3 3 0 1 0 6 0 a3 3 0 1 0 -6 0z" fill="black"></path><path d="M1401 156 a3 3 0 1 0 6 0 a3 3 0 1 0 -6 0zM945 252 a3 3 0 1 0 6 0 a3 3 0 1 0 -6 0z" fill="black"></path><path d="M993 396 a3 3 0 1 0 6 0 a3 3 0 1 0 -6 0zM537 564 a3 3 0 1 0 6 0 a3 3 0 1 0 -6 0z" fill="black"></path><path d="M825 228 a3 3 0 1 0 6 0 a3 3 0 1 0 -6 0zM681 540 a3 3 0 1 0 6 0 a3 3 0 1 0 -6 0z" fill="black"></path><path d="M417 396 a3 3 0 1 0 6 0 a3 3 0 1 0 -6 0zM9 348 a3 3 0 1 0 6 0 a3 3 0 1 0 -6 0z" fill="black"></path><path d="M585 12 a3 3 0 1 0 6 0 a3 3 0 1 0 -6 0zM585 156 a3 3 0 1 0 6 0 a3 3 0 1 0 -6 0z" fill="black"></path><path d="M1329 468 a3 3 0 1 0 6 0 a3 3 0 1 0 -6 0zM1209 36 a3 3 0 1 0 6 0 a3 3 0 1 0 -6 0z" fill="black"></path><path d="M129 252 a3 3 0 1 0 6 0 a3 3 0 1 0 -6 0zM129 12 a3 3 0 1 0 6 0 a3 3 0 1 0 -6 0z" fill="black"></path><path d="M897 516 a3 3 0 1 0 6 0 a3 3 0 1 0 -6 0zM1353 540 a3 3 0 1 0 6 0 a3 3 0 1 0 -6 0z" fill="black"></path><path d="M393 156 a3 3 0 1 0 6 0 a3 3 0 1 0 -6 0zM561 12 a3 3 0 1 0 6 0 a3 3 0 1 0 -6 0z" fill="black"></path><path d="M129 564 a3 3 0 1 0 6 0 a3 3 0 1 0 -6 0zM177 372 a3 3 0 1 0 6 0 a3 3 0 1 0 -6 0z" fill="black"></path><path d="M801 252 a3 3 0 1 0 6 0 a3 3 0 1 0 -6 0zM537 468 a3 3 0 1 0 6 0 a3 3 0 1 0 -6 0z" fill="black"></path><path d="M345 12 a3 3 0 1 0 6 0 a3 3 0 1 0 -6 0zM345 180 a3 3 0 1 0 6 0 a3 3 0 1 0 -6 0z" fill="black"></path><path d="M609 372 a3 3 0 1 0 6 0 a3 3 0 1 0 -6 0zM777 516 a3 3 0 1 0 6 0 a3 3 0 1 0 -6 0z" fill="black"></path><path d="M729 36 a3 3 0 1 0 6 0 a3 3 0 1 0 -6 0zM825 204 a3 3 0 1 0 6 0 a3 3 0 1 0 -6 0z" fill="black"></path><path d="M201 84 a3 3 0 1 0 6 0 a3 3 0 1 0 -6 0zM321 12 a3 3 0 1 0 6 0 a3 3 0 1 0 -6 0z" fill="black"></path><path d="M1113 204 a3 3 0 1 0 6 0 a3 3 0 1 0 -6 0zM1305 540 a3 3 0 1 0 6 0 a3 3 0 1 0 -6 0z" fill="black"></path><path d="M1161 348 a3 3 0 1 0 6 0 a3 3 0 1 0 -6 0zM921 300 a3 3 0 1 0 6 0 a3 3 0 1 0 -6 0z" fill="black"></path><path d="M9 468 a3 3 0 1 0 6 0 a3 3 0 1 0 -6 0zM153 372 a3 3 0 1 0 6 0 a3 3 0 1 0 -6 0z" fill="black"></path><path d="M81 12 a3 3 0 1 0 6 0 a3 3 0 1 0 -6 0zM9 324 a3 3 0 1 0 6 0 a3 3 0 1 0 -6 0z" fill="black"></path><path d="M1281 396 a3 3 0 1 0 6 0 a3 3 0 1 0 -6 0zM945 540 a3 3 0 1 0 6 0 a3 3 0 1 0 -6 0z" fill="black"></path><path d="M297 540 a3 3 0 1 0 6 0 a3 3 0 1 0 -6 0zM465 468 a3 3 0 1 0 6 0 a3 3 0 1 0 -6 0z" fill="black"></path><path d="M249 180 a3 3 0 1 0 6 0 a3 3 0 1 0 -6 0zM321 36 a3 3 0 1 0 6 0 a3 3 0 1 0 -6 0z" fill="black"></path><path d="M57 204 a3 3 0 1 0 6 0 a3 3 0 1 0 -6 0zM9 12 a3 3 0 1 0 6 0 a3 3 0 1 0 -6 0z" fill="black"></path><path d="M609 228 a3 3 0 1 0 6 0 a3 3 0 1 0 -6 0zM705 156 a3 3 0 1 0 6 0 a3 3 0 1 0 -6 0z" fill="black"></path><path d="M1161 372 a3 3 0 1 0 6 0 a3 3 0 1 0 -6 0zM1257 444 a3 3 0 1 0 6 0 a3 3 0 1 0 -6 0z" fill="black"></path><path d="M873 396 a3 3 0 1 0 6 0 a3 3 0 1 0 -6 0zM801 516 a3 3 0 1 0 6 0 a3 3 0 1 0 -6 0z" fill="black"></path><path d="M321 228 a3 3 0 1 0 6 0 a3 3 0 1 0 -6 0zM273 324 a3 3 0 1 0 6 0 a3 3 0 1 0 -6 0z" fill="black"></path><path d="M801 420 a3 3 0 1 0 6 0 a3 3 0 1 0 -6 0zM681 276 a3 3 0 1 0 6 0 a3 3 0 1 0 -6 0z" fill="black"></path><path d="M1065 420 a3 3 0 1 0 6 0 a3 3 0 1 0 -6 0zM1041 300 a3 3 0 1 0 6 0 a3 3 0 1 0 -6 0z" fill="black"></path><path d="M993 108 a3 3 0 1 0 6 0 a3 3 0 1 0 -6 0zM873 12 a3 3 0 1 0 6 0 a3 3 0 1 0 -6 0z" fill="black"></path><path d="M57 36 a3 3 0 1 0 6 0 a3 3 0 1 0 -6 0zM9 252 a3 3 0 1 0 6 0 a3 3 0 1 0 -6 0z" fill="black"></path><path d="M801 108 a3 3 0 1 0 6 0 a3 3 0 1 0 -6 0zM729 156 a3 3 0 1 0 6 0 a3 3 0 1 0 -6 0z" fill="black"></path><path d="M57 396 a3 3 0 1 0 6 0 a3 3 0 1 0 -6 0zM9 396 a3 3 0 1 0 6 0 a3 3 0 1 0 -6 0z" fill="black"></path><path d="M777 276 a3 3 0 1 0 6 0 a3 3 0 1 0 -6 0zM729 324 a3 3 0 1 0 6 0 a3 3 0 1 0 -6 0z" fill="black"></path><path d="M297 396 a3 3 0 1 0 6 0 a3 3 0 1 0 -6 0zM369 468 a3 3 0 1 0 6 0 a3 3 0 1 0 -6 0z" fill="black"></path><path d="M1065 252 a3 3 0 1 0 6 0 a3 3 0 1 0 -6 0zM1017 204 a3 3 0 1 0 6 0 a3 3 0 1 0 -6 0z" fill="black"></path><path d="M465 324 a3 3 0 1 0 6 0 a3 3 0 1 0 -6 0zM297 324 a3 3 0 1 0 6 0 a3 3 0 1 0 -6 0z" fill="black"></path><path d="M9 540 a3 3 0 1 0 6 0 a3 3 0 1 0 -6 0zM153 516 a3 3 0 1 0 6 0 a3 3 0 1 0 -6 0z" fill="black"></path><path d="M705 348 a3 3 0 1 0 6 0 a3 3 0 1 0 -6 0zM561 276 a3 3 0 1 0 6 0 a3 3 0 1 0 -6 0z" fill="black"></path><path d="M993 348 a3 3 0 1 0 6 0 a3 3 0 1 0 -6 0zM1041 276 a3 3 0 1 0 6 0 a3 3 0 1 0 -6 0z" fill="black"></path><path d="M753 492 a3 3 0 1 0 6 0 a3 3 0 1 0 -6 0zM537 396 a3 3 0 1 0 6 0 a3 3 0 1 0 -6 0z" fill="black"></path><path d="M657 132 a3 3 0 1 0 6 0 a3 3 0 1 0 -6 0zM657 12 a3 3 0 1 0 6 0 a3 3 0 1 0 -6 0z" fill="black"></path><path d="M1089 396 a3 3 0 1 0 6 0 a3 3 0 1 0 -6 0zM1185 396 a3 3 0 1 0 6 0 a3 3 0 1 0 -6 0z" fill="black"></path><path d="M1137 228 a3 3 0 1 0 6 0 a3 3 0 1 0 -6 0zM1257 420 a3 3 0 1 0 6 0 a3 3 0 1 0 -6 0z" fill="black"></path><path d="M441 396 a3 3 0 1 0 6 0 a3 3 0 1 0 -6 0zM465 444 a3 3 0 1 0 6 0 a3 3 0 1 0 -6 0z" fill="black"></path><path d="M1041 468 a3 3 0 1 0 6 0 a3 3 0 1 0 -6 0zM1017 276 a3 3 0 1 0 6 0 a3 3 0 1 0 -6 0z" fill="black"></path><path d="M1353 468 a3 3 0 1 0 6 0 a3 3 0 1 0 -6 0zM1329 540 a3 3 0 1 0 6 0 a3 3 0 1 0 -6 0z" fill="black"></path><path d="M201 324 a3 3 0 1 0 6 0 a3 3 0 1 0 -6 0zM297 228 a3 3 0 1 0 6 0 a3 3 0 1 0 -6 0z" fill="black"></path><path d="M1329 156 a3 3 0 1 0 6 0 a3 3 0 1 0 -6 0zM1329 132 a3 3 0 1 0 6 0 a3 3 0 1 0 -6 0z" fill="black"></path><path d="M201 372 a3 3 0 1 0 6 0 a3 3 0 1 0 -6 0zM441 444 a3 3 0 1 0 6 0 a3 3 0 1 0 -6 0z" fill="black"></path><path d="M369 444 a3 3 0 1 0 6 0 a3 3 0 1 0 -6 0zM369 396 a3 3 0 1 0 6 0 a3 3 0 1 0 -6 0z" fill="black"></path><path d="M1065 60 a3 3 0 1 0 6 0 a3 3 0 1 0 -6 0zM921 12 a3 3 0 1 0 6 0 a3 3 0 1 0 -6 0z" fill="black"></path><path d="M273 132 a3 3 0 1 0 6 0 a3 3 0 1 0 -6 0zM321 180 a3 3 0 1 0 6 0 a3 3 0 1 0 -6 0z" fill="black"></path><path d="M153 156 a3 3 0 1 0 6 0 a3 3 0 1 0 -6 0zM153 12 a3 3 0 1 0 6 0 a3 3 0 1 0 -6 0z" fill="black"></path><path d="M321 564 a3 3 0 1 0 6 0 a3 3 0 1 0 -6 0zM201 396 a3 3 0 1 0 6 0 a3 3 0 1 0 -6 0z" fill="black"></path><path d="M729 84 a3 3 0 1 0 6 0 a3 3 0 1 0 -6 0zM777 60 a3 3 0 1 0 6 0 a3 3 0 1 0 -6 0z" fill="black"></path><path d="M441 516 a3 3 0 1 0 6 0 a3 3 0 1 0 -6 0zM345 564 a3 3 0 1 0 6 0 a3 3 0 1 0 -6 0z" fill="black"></path><path d="M81 300 a3 3 0 1 0 6 0 a3 3 0 1 0 -6 0zM105 204 a3 3 0 1 0 6 0 a3 3 0 1 0 -6 0z" fill="black"></path><path d="M561 468 a3 3 0 1 0 6 0 a3 3 0 1 0 -6 0zM537 420 a3 3 0 1 0 6 0 a3 3 0 1 0 -6 0z" fill="black"></path><path d="M897 180 a3 3 0 1 0 6 0 a3 3 0 1 0 -6 0zM897 84 a3 3 0 1 0 6 0 a3 3 0 1 0 -6 0z" fill="black"></path><path d="M1209 372 a3 3 0 1 0 6 0 a3 3 0 1 0 -6 0zM1041 180 a3 3 0 1 0 6 0 a3 3 0 1 0 -6 0z" fill="black"></path><path d="M1113 492 a3 3 0 1 0 6 0 a3 3 0 1 0 -6 0zM1041 396 a3 3 0 1 0 6 0 a3 3 0 1 0 -6 0z" fill="black"></path><path d="M153 396 a3 3 0 1 0 6 0 a3 3 0 1 0 -6 0zM9 516 a3 3 0 1 0 6 0 a3 3 0 1 0 -6 0z" fill="black"></path><path d="M441 108 a3 3 0 1 0 6 0 a3 3 0 1 0 -6 0zM561 180 a3 3 0 1 0 6 0 a3 3 0 1 0 -6 0z" fill="black"></path><path d="M1065 372 a3 3 0 1 0 6 0 a3 3 0 1 0 -6 0zM1065 300 a3 3 0 1 0 6 0 a3 3 0 1 0 -6 0z" fill="black"></path><path d="M249 420 a3 3 0 1 0 6 0 a3 3 0 1 0 -6 0zM225 396 a3 3 0 1 0 6 0 a3 3 0 1 0 -6 0z" fill="black"></path><path d="M273 60 a3 3 0 1 0 6 0 a3 3 0 1 0 -6 0zM297 132 a3 3 0 1 0 6 0 a3 3 0 1 0 -6 0z" fill="black"></path><path d="M801 204 a3 3 0 1 0 6 0 a3 3 0 1 0 -6 0zM873 108 a3 3 0 1 0 6 0 a3 3 0 1 0 -6 0z" fill="black"></path><path d="M849 372 a3 3 0 1 0 6 0 a3 3 0 1 0 -6 0zM777 300 a3 3 0 1 0 6 0 a3 3 0 1 0 -6 0z" fill="black"></path><path d="M801 300 a3 3 0 1 0 6 0 a3 3 0 1 0 -6 0zM921 420 a3 3 0 1 0 6 0 a3 3 0 1 0 -6 0z" fill="black"></path><path d="M1113 300 a3 3 0 1 0 6 0 a3 3 0 1 0 -6 0zM1041 204 a3 3 0 1 0 6 0 a3 3 0 1 0 -6 0z" fill="black"></path><path d="M537 372 a3 3 0 1 0 6 0 a3 3 0 1 0 -6 0zM585 372 a3 3 0 1 0 6 0 a3 3 0 1 0 -6 0z" fill="black"></path><path d="M513 540 a3 3 0 1 0 6 0 a3 3 0 1 0 -6 0zM609 540 a3 3 0 1 0 6 0 a3 3 0 1 0 -6 0z" fill="black"></path><path d="M1353 108 a3 3 0 1 0 6 0 a3 3 0 1 0 -6 0zM1353 36 a3 3 0 1 0 6 0 a3 3 0 1 0 -6 0z" fill="black"></path><path d="M201 108 a3 3 0 1 0 6 0 a3 3 0 1 0 -6 0zM225 228 a3 3 0 1 0 6 0 a3 3 0 1 0 -6 0z" fill="black"></path><path d="M417 540 a3 3 0 1 0 6 0 a3 3 0 1 0 -6 0zM369 564 a3 3 0 1 0 6 0 a3 3 0 1 0 -6 0z" fill="black"></path><path d="M417 180 a3 3 0 1 0 6 0 a3 3 0 1 0 -6 0zM465 180 a3 3 0 1 0 6 0 a3 3 0 1 0 -6 0z" fill="black"></path><path d="M417 60 a3 3 0 1 0 6 0 a3 3 0 1 0 -6 0zM417 156 a3 3 0 1 0 6 0 a3 3 0 1 0 -6 0z" fill="black"></path><path d="M681 84 a3 3 0 1 0 6 0 a3 3 0 1 0 -6 0zM681 156 a3 3 0 1 0 6 0 a3 3 0 1 0 -6 0z" fill="black"></path><path d="M849 276 a3 3 0 1 0 6 0 a3 3 0 1 0 -6 0zM801 276 a3 3 0 1 0 6 0 a3 3 0 1 0 -6 0z" fill="black"></path><path d="M417 228 a3 3 0 1 0 6 0 a3 3 0 1 0 -6 0zM417 300 a3 3 0 1 0 6 0 a3 3 0 1 0 -6 0z" fill="black"></path><path d="M681 12 a3 3 0 1 0 6 0 a3 3 0 1 0 -6 0zM729 60 a3 3 0 1 0 6 0 a3 3 0 1 0 -6 0z" fill="black"></path><path d="M609 108 a3 3 0 1 0 6 0 a3 3 0 1 0 -6 0zM609 12 a3 3 0 1 0 6 0 a3 3 0 1 0 -6 0z" fill="black"></path><path d="M129 324 a3 3 0 1 0 6 0 a3 3 0 1 0 -6 0zM153 180 a3 3 0 1 0 6 0 a3 3 0 1 0 -6 0z" fill="black"></path><path d="M105 276 a3 3 0 1 0 6 0 a3 3 0 1 0 -6 0zM105 324 a3 3 0 1 0 6 0 a3 3 0 1 0 -6 0z" fill="black"></path><path d="M465 492 a3 3 0 1 0 6 0 a3 3 0 1 0 -6 0zM585 516 a3 3 0 1 0 6 0 a3 3 0 1 0 -6 0z" fill="black"></path><path d="M81 468 a3 3 0 1 0 6 0 a3 3 0 1 0 -6 0zM153 420 a3 3 0 1 0 6 0 a3 3 0 1 0 -6 0z" fill="black"></path><path d="M681 444 a3 3 0 1 0 6 0 a3 3 0 1 0 -6 0zM537 444 a3 3 0 1 0 6 0 a3 3 0 1 0 -6 0z" fill="black"></path><path d="M537 228 a3 3 0 1 0 6 0 a3 3 0 1 0 -6 0zM513 276 a3 3 0 1 0 6 0 a3 3 0 1 0 -6 0z" fill="black"></path><path d="M441 276 a3 3 0 1 0 6 0 a3 3 0 1 0 -6 0zM441 228 a3 3 0 1 0 6 0 a3 3 0 1 0 -6 0z" fill="black"></path><path d="M1353 420 a3 3 0 1 0 6 0 a3 3 0 1 0 -6 0zM1401 468 a3 3 0 1 0 6 0 a3 3 0 1 0 -6 0z" fill="black"></path><path d="M1137 468 a3 3 0 1 0 6 0 a3 3 0 1 0 -6 0zM1185 468 a3 3 0 1 0 6 0 a3 3 0 1 0 -6 0z" fill="black"></path><path d="M1089 84 a3 3 0 1 0 6 0 a3 3 0 1 0 -6 0zM1161 12 a3 3 0 1 0 6 0 a3 3 0 1 0 -6 0z" fill="black"></path><path d="M297 444 a3 3 0 1 0 6 0 a3 3 0 1 0 -6 0zM249 444 a3 3 0 1 0 6 0 a3 3 0 1 0 -6 0z" fill="black"></path><path d="M825 492 a3 3 0 1 0 6 0 a3 3 0 1 0 -6 0zM873 468 a3 3 0 1 0 6 0 a3 3 0 1 0 -6 0z" fill="black"></path><path d="M1377 180 a3 3 0 1 0 6 0 a3 3 0 1 0 -6 0zM1401 372 a3 3 0 1 0 6 0 a3 3 0 1 0 -6 0z" fill="black"></path><path d="M753 348 a3 3 0 1 0 6 0 a3 3 0 1 0 -6 0zM849 396 a3 3 0 1 0 6 0 a3 3 0 1 0 -6 0z" fill="black"></path><path d="M57 492 a3 3 0 1 0 6 0 a3 3 0 1 0 -6 0zM57 540 a3 3 0 1 0 6 0 a3 3 0 1 0 -6 0z" fill="black"></path><path d="M297 300 a3 3 0 1 0 6 0 a3 3 0 1 0 -6 0zM393 228 a3 3 0 1 0 6 0 a3 3 0 1 0 -6 0z" fill="black"></path><path d="M369 540 a3 3 0 1 0 6 0 a3 3 0 1 0 -6 0zM417 516 a3 3 0 1 0 6 0 a3 3 0 1 0 -6 0z" fill="black"></path><path d="M1089 36 a3 3 0 1 0 6 0 a3 3 0 1 0 -6 0zM945 12 a3 3 0 1 0 6 0 a3 3 0 1 0 -6 0z" fill="black"></path><path d="M801 372 a3 3 0 1 0 6 0 a3 3 0 1 0 -6 0zM825 420 a3 3 0 1 0 6 0 a3 3 0 1 0 -6 0z" fill="black"></path><path d="M1257 204 a3 3 0 1 0 6 0 a3 3 0 1 0 -6 0zM1281 252 a3 3 0 1 0 6 0 a3 3 0 1 0 -6 0z" fill="black"></path><path d="M1281 540 a3 3 0 1 0 6 0 a3 3 0 1 0 -6 0zM1281 468 a3 3 0 1 0 6 0 a3 3 0 1 0 -6 0z" fill="black"></path><path d="M225 204 a3 3 0 1 0 6 0 a3 3 0 1 0 -6 0zM225 84 a3 3 0 1 0 6 0 a3 3 0 1 0 -6 0z" fill="black"></path><path d="M729 204 a3 3 0 1 0 6 0 a3 3 0 1 0 -6 0zM801 228 a3 3 0 1 0 6 0 a3 3 0 1 0 -6 0z" fill="black"></path><path d="M1353 156 a3 3 0 1 0 6 0 a3 3 0 1 0 -6 0zM1353 252 a3 3 0 1 0 6 0 a3 3 0 1 0 -6 0z" fill="black"></path><path d="M369 60 a3 3 0 1 0 6 0 a3 3 0 1 0 -6 0zM369 12 a3 3 0 1 0 6 0 a3 3 0 1 0 -6 0z" fill="black"></path><path d="M1281 132 a3 3 0 1 0 6 0 a3 3 0 1 0 -6 0zM1161 132 a3 3 0 1 0 6 0 a3 3 0 1 0 -6 0z" fill="black"></path><path d="M1137 564 a3 3 0 1 0 6 0 a3 3 0 1 0 -6 0zM1209 564 a3 3 0 1 0 6 0 a3 3 0 1 0 -6 0z" fill="black"></path><path d="M9 60 a3 3 0 1 0 6 0 a3 3 0 1 0 -6 0zM9 132 a3 3 0 1 0 6 0 a3 3 0 1 0 -6 0z" fill="black"></path><path d="M57 372 a3 3 0 1 0 6 0 a3 3 0 1 0 -6 0zM9 372 a3 3 0 1 0 6 0 a3 3 0 1 0 -6 0z" fill="black"></path><path d="M249 564 a3 3 0 1 0 6 0 a3 3 0 1 0 -6 0zM153 564 a3 3 0 1 0 6 0 a3 3 0 1 0 -6 0z" fill="black"></path><path d="M897 348 a3 3 0 1 0 6 0 a3 3 0 1 0 -6 0zM945 396 a3 3 0 1 0 6 0 a3 3 0 1 0 -6 0z" fill="black"></path><path d="M1377 348 a3 3 0 1 0 6 0 a3 3 0 1 0 -6 0zM1377 300 a3 3 0 1 0 6 0 a3 3 0 1 0 -6 0z" fill="black"></path><path d="M729 228 a3 3 0 1 0 6 0 a3 3 0 1 0 -6 0zM633 228 a3 3 0 1 0 6 0 a3 3 0 1 0 -6 0z" fill="black"></path><path d="M489 132 a3 3 0 1 0 6 0 a3 3 0 1 0 -6 0zM537 156 a3 3 0 1 0 6 0 a3 3 0 1 0 -6 0z" fill="black"></path><path d="M177 36 a3 3 0 1 0 6 0 a3 3 0 1 0 -6 0zM225 36 a3 3 0 1 0 6 0 a3 3 0 1 0 -6 0z" fill="black"></path><path d="M897 228 a3 3 0 1 0 6 0 a3 3 0 1 0 -6 0zM849 228 a3 3 0 1 0 6 0 a3 3 0 1 0 -6 0z" fill="black"></path><path d="M153 468 a3 3 0 1 0 6 0 a3 3 0 1 0 -6 0zM81 516 a3 3 0 1 0 6 0 a3 3 0 1 0 -6 0z" fill="black"></path><path d="M561 132 a3 3 0 1 0 6 0 a3 3 0 1 0 -6 0zM561 36 a3 3 0 1 0 6 0 a3 3 0 1 0 -6 0z" fill="black"></path><path d="M1137 324 a3 3 0 1 0 6 0 a3 3 0 1 0 -6 0zM1137 276 a3 3 0 1 0 6 0 a3 3 0 1 0 -6 0z" fill="black"></path><path d="M393 300 a3 3 0 1 0 6 0 a3 3 0 1 0 -6 0zM345 252 a3 3 0 1 0 6 0 a3 3 0 1 0 -6 0z" fill="black"></path><path d="M1041 492 a3 3 0 1 0 6 0 a3 3 0 1 0 -6 0zM945 492 a3 3 0 1 0 6 0 a3 3 0 1 0 -6 0z" fill="black"></path><path d="M1041 540 a3 3 0 1 0 6 0 a3 3 0 1 0 -6 0zM969 540 a3 3 0 1 0 6 0 a3 3 0 1 0 -6 0z" fill="black"></path><path d="M705 84 a3 3 0 1 0 6 0 a3 3 0 1 0 -6 0zM681 36 a3 3 0 1 0 6 0 a3 3 0 1 0 -6 0z" fill="black"></path><path d="M1209 204 a3 3 0 1 0 6 0 a3 3 0 1 0 -6 0zM1257 180 a3 3 0 1 0 6 0 a3 3 0 1 0 -6 0z" fill="black"></path><path d="M825 300 a3 3 0 1 0 6 0 a3 3 0 1 0 -6 0zM897 324 a3 3 0 1 0 6 0 a3 3 0 1 0 -6 0z" fill="black"></path><path d="M1353 564 a3 3 0 1 0 6 0 a3 3 0 1 0 -6 0zM1401 492 a3 3 0 1 0 6 0 a3 3 0 1 0 -6 0z" fill="black"></path><path d="M609 132 a3 3 0 1 0 6 0 a3 3 0 1 0 -6 0zM633 60 a3 3 0 1 0 6 0 a3 3 0 1 0 -6 0z" fill="black"></path><path d="M1257 372 a3 3 0 1 0 6 0 a3 3 0 1 0 -6 0zM1233 324 a3 3 0 1 0 6 0 a3 3 0 1 0 -6 0z" fill="black"></path><path d="M705 228 a3 3 0 1 0 6 0 a3 3 0 1 0 -6 0zM657 228 a3 3 0 1 0 6 0 a3 3 0 1 0 -6 0z" fill="black"></path><path d="M249 492 a3 3 0 1 0 6 0 a3 3 0 1 0 -6 0zM321 468 a3 3 0 1 0 6 0 a3 3 0 1 0 -6 0z" fill="black"></path><path d="M465 36 a3 3 0 1 0 6 0 a3 3 0 1 0 -6 0zM465 108 a3 3 0 1 0 6 0 a3 3 0 1 0 -6 0z" fill="black"></path><path d="M321 276 a3 3 0 1 0 6 0 a3 3 0 1 0 -6 0zM369 300 a3 3 0 1 0 6 0 a3 3 0 1 0 -6 0z" fill="black"></path><path d="M1041 84 a3 3 0 1 0 6 0 a3 3 0 1 0 -6 0zM993 84 a3 3 0 1 0 6 0 a3 3 0 1 0 -6 0z" fill="black"></path><path d="M1233 84 a3 3 0 1 0 6 0 a3 3 0 1 0 -6 0zM1185 108 a3 3 0 1 0 6 0 a3 3 0 1 0 -6 0z" fill="black"></path><path d="M1185 348 a3 3 0 1 0 6 0 a3 3 0 1 0 -6 0zM1161 300 a3 3 0 1 0 6 0 a3 3 0 1 0 -6 0z" fill="black"></path><path d="M513 36 a3 3 0 1 0 6 0 a3 3 0 1 0 -6 0zM537 108 a3 3 0 1 0 6 0 a3 3 0 1 0 -6 0z" fill="black"></path><path d="M1377 36 a3 3 0 1 0 6 0 a3 3 0 1 0 -6 0zM1401 108 a3 3 0 1 0 6 0 a3 3 0 1 0 -6 0z" fill="black"></path><path d="M537 36 a3 3 0 1 0 6 0 a3 3 0 1 0 -6 0zM537 84 a3 3 0 1 0 6 0 a3 3 0 1 0 -6 0z" fill="black"></path></mask></defs></svg>