<svg xmlns="http://www.w3.org/2000/svg" version="1.1" xmlns:xlink="http://www.w3.org/1999/xlink" xmlns:svgjs="http://svgjs.dev/svgjs" width="1440" height="560" preserveAspectRatio="none" viewBox="0 0 1440 560"><g mask="url(&quot;#SvgjsMask1007&quot;)" fill="none"><path d="M1002 114L1001 321" stroke-width="8" stroke="url(&quot;#SvgjsLinearGradient1008&quot;)" stroke-linecap="round" class="Up"></path><path d="M526 138L525 -175" stroke-width="10" stroke="url(&quot;#SvgjsLinearGradient1009&quot;)" stroke-linecap="round" class="Down"></path><path d="M1074 534L1073 278" stroke-width="10" stroke="url(&quot;#SvgjsLinearGradient1009&quot;)" stroke-linecap="round" class="Down"></path><path d="M700 39L699 187" stroke-width="6" stroke="url(&quot;#SvgjsLinearGradient1008&quot;)" stroke-linecap="round" class="Up"></path><path d="M712 532L711 889" stroke-width="10" stroke="url(&quot;#SvgjsLinearGradient1008&quot;)" stroke-linecap="round" class="Up"></path><path d="M261 310L260 102" stroke-width="6" stroke="url(&quot;#SvgjsLinearGradient1008&quot;)" stroke-linecap="round" class="Up"></path><path d="M871 160L870 315" stroke-width="8" stroke="url(&quot;#SvgjsLinearGradient1008&quot;)" stroke-linecap="round" class="Up"></path><path d="M340 141L339 0" stroke-width="10" stroke="url(&quot;#SvgjsLinearGradient1008&quot;)" stroke-linecap="round" class="Up"></path><path d="M625 411L624 779" stroke-width="10" stroke="url(&quot;#SvgjsLinearGradient1008&quot;)" stroke-linecap="round" class="Up"></path><path d="M70 112L69 286" stroke-width="6" stroke="url(&quot;#SvgjsLinearGradient1009&quot;)" stroke-linecap="round" class="Down"></path><path d="M1187 15L1186 210" stroke-width="10" stroke="url(&quot;#SvgjsLinearGradient1008&quot;)" stroke-linecap="round" class="Up"></path><path d="M795 296L794 98" stroke-width="6" stroke="url(&quot;#SvgjsLinearGradient1009&quot;)" stroke-linecap="round" class="Down"></path><path d="M307 558L306 735" stroke-width="10" stroke="url(&quot;#SvgjsLinearGradient1009&quot;)" stroke-linecap="round" class="Down"></path><path d="M20 138L19 495" stroke-width="10" stroke="url(&quot;#SvgjsLinearGradient1008&quot;)" stroke-linecap="round" class="Up"></path><path d="M635 452L634 827" stroke-width="6" stroke="url(&quot;#SvgjsLinearGradient1009&quot;)" stroke-linecap="round" class="Down"></path><path d="M750 443L749 584" stroke-width="8" stroke="url(&quot;#SvgjsLinearGradient1009&quot;)" stroke-linecap="round" class="Down"></path><path d="M685 125L684 -35" stroke-width="10" stroke="url(&quot;#SvgjsLinearGradient1009&quot;)" stroke-linecap="round" class="Down"></path><path d="M1355 396L1354 587" stroke-width="6" stroke="url(&quot;#SvgjsLinearGradient1009&quot;)" stroke-linecap="round" class="Down"></path><path d="M1351 245L1350 403" stroke-width="6" stroke="url(&quot;#SvgjsLinearGradient1008&quot;)" stroke-linecap="round" class="Up"></path><path d="M703 204L702 592" stroke-width="10" stroke="url(&quot;#SvgjsLinearGradient1009&quot;)" stroke-linecap="round" class="Down"></path><path d="M1196 323L1195 -90" stroke-width="8" stroke="url(&quot;#SvgjsLinearGradient1009&quot;)" stroke-linecap="round" class="Down"></path><path d="M1195 110L1194 521" stroke-width="6" stroke="url(&quot;#SvgjsLinearGradient1008&quot;)" stroke-linecap="round" class="Up"></path><path d="M661 372L660 637" stroke-width="6" stroke="url(&quot;#SvgjsLinearGradient1009&quot;)" stroke-linecap="round" class="Down"></path><path d="M340 46L339 -342" stroke-width="8" stroke="url(&quot;#SvgjsLinearGradient1009&quot;)" stroke-linecap="round" class="Down"></path><path d="M1342 74L1341 278" stroke-width="10" stroke="url(&quot;#SvgjsLinearGradient1008&quot;)" stroke-linecap="round" class="Up"></path><path d="M992 431L991 173" stroke-width="10" stroke="url(&quot;#SvgjsLinearGradient1009&quot;)" stroke-linecap="round" class="Down"></path><path d="M225 159L224 -142" stroke-width="8" stroke="url(&quot;#SvgjsLinearGradient1008&quot;)" stroke-linecap="round" class="Up"></path><path d="M1237 269L1236 97" stroke-width="6" stroke="url(&quot;#SvgjsLinearGradient1008&quot;)" stroke-linecap="round" class="Up"></path><path d="M1384 369L1383 105" stroke-width="6" stroke="url(&quot;#SvgjsLinearGradient1009&quot;)" stroke-linecap="round" class="Down"></path><path d="M880 481L879 859" stroke-width="6" stroke="url(&quot;#SvgjsLinearGradient1009&quot;)" stroke-linecap="round" class="Down"></path><path d="M547 485L546 196" stroke-width="8" stroke="url(&quot;#SvgjsLinearGradient1008&quot;)" stroke-linecap="round" class="Up"></path><path d="M888 25L887 -206" stroke-width="8" stroke="url(&quot;#SvgjsLinearGradient1008&quot;)" stroke-linecap="round" class="Up"></path><path d="M138 414L137 98" stroke-width="10" stroke="url(&quot;#SvgjsLinearGradient1008&quot;)" stroke-linecap="round" class="Up"></path><path d="M554 22L553 -157" stroke-width="8" stroke="url(&quot;#SvgjsLinearGradient1008&quot;)" stroke-linecap="round" class="Up"></path><path d="M17 345L16 516" stroke-width="8" stroke="url(&quot;#SvgjsLinearGradient1008&quot;)" stroke-linecap="round" class="Up"></path><path d="M233 135L232 -248" stroke-width="8" stroke="url(&quot;#SvgjsLinearGradient1009&quot;)" stroke-linecap="round" class="Down"></path></g><defs><mask id="SvgjsMask1007"><rect width="1440" height="560" fill="#ffffff"></rect></mask><linearGradient x1="0%" y1="100%" x2="0%" y2="0%" id="SvgjsLinearGradient1008"><stop stop-color="rgba(104, 18, 243, 0)" offset="0"></stop><stop stop-color="rgba(104, 18, 243, 1)" offset="1"></stop></linearGradient><linearGradient x1="0%" y1="0%" x2="0%" y2="100%" id="SvgjsLinearGradient1009"><stop stop-color="rgba(104, 18, 243, 0)" offset="0"></stop><stop stop-color="rgba(104, 18, 243, 1)" offset="1"></stop></linearGradient></defs></svg>