<svg xmlns="http://www.w3.org/2000/svg" version="1.1" xmlns:xlink="http://www.w3.org/1999/xlink" xmlns:svgjs="http://svgjs.dev/svgjs" width="1440" height="560" preserveAspectRatio="none" viewBox="0 0 1440 560"><g mask="url(&quot;#SvgjsMask1002&quot;)" fill="none"><rect width="1440" height="560" x="0" y="0" fill="rgba(255, 255, 255, 1)"></rect><path d="M-57.72 386.02L-57.72 386.02" stroke="#132e65" stroke-width="1.5"></path><path d="M-57.72 386.02L59.87 377.57" stroke="#132e65" stroke-width="1.5"></path><path d="M-57.72 386.02L-75.7 561.93" stroke="#132e65" stroke-width="1.5"></path><path d="M-57.72 386.02L196.31 388.43" stroke="#132e65" stroke-width="1.5"></path><path d="M-57.72 386.02L-42.32 690.6" stroke="#132e65" stroke-width="1.5"></path><path d="M-75.7 561.93L-75.7 561.93" stroke="#132e65" stroke-width="1.5"></path><path d="M-75.7 561.93L-42.32 690.6" stroke="#132e65" stroke-width="1.5"></path><path d="M-75.7 561.93L107.48 649.79" stroke="#132e65" stroke-width="1.5"></path><path d="M-75.7 561.93L59.87 377.57" stroke="#132e65" stroke-width="1.5"></path><path d="M-42.32 690.6L-42.32 690.6" stroke="#132e65" stroke-width="1.5"></path><path d="M-42.32 690.6L107.48 649.79" stroke="#132e65" stroke-width="1.5"></path><path d="M-42.32 690.6L235.01 708.13" stroke="#132e65" stroke-width="1.5"></path><path d="M59.87 377.57L59.87 377.57" stroke="#132e65" stroke-width="1.5"></path><path d="M59.87 377.57L196.31 388.43" stroke="#132e65" stroke-width="1.5"></path><path d="M59.87 377.57L250.18 533.87" stroke="#132e65" stroke-width="1.5"></path><path d="M107.48 649.79L107.48 649.79" stroke="#132e65" stroke-width="1.5"></path><path d="M107.48 649.79L235.01 708.13" stroke="#132e65" stroke-width="1.5"></path><path d="M107.48 649.79L250.18 533.87" stroke="#132e65" stroke-width="1.5"></path><path d="M107.48 649.79L376.03 672.05" stroke="#132e65" stroke-width="1.5"></path><path d="M107.48 649.79L196.31 388.43" stroke="#132e65" stroke-width="1.5"></path><path d="M196.31 388.43L196.31 388.43" stroke="#132e65" stroke-width="1.5"></path><path d="M196.31 388.43L250.18 533.87" stroke="#132e65" stroke-width="1.5"></path><path d="M196.31 388.43L390.8 396.81" stroke="#132e65" stroke-width="1.5"></path><path d="M250.18 533.87L250.18 533.87" stroke="#132e65" stroke-width="1.5"></path><path d="M235.01 708.13L235.01 708.13" stroke="#132e65" stroke-width="1.5"></path><path d="M235.01 708.13L376.03 672.05" stroke="#132e65" stroke-width="1.5"></path><path d="M235.01 708.13L250.18 533.87" stroke="#132e65" stroke-width="1.5"></path><path d="M235.01 708.13L406.36 546.47" stroke="#132e65" stroke-width="1.5"></path><path d="M235.01 708.13L509.79 643.62" stroke="#132e65" stroke-width="1.5"></path><path d="M390.8 396.81L390.8 396.81" stroke="#132e65" stroke-width="1.5"></path><path d="M390.8 396.81L497.27 381.95" stroke="#132e65" stroke-width="1.5"></path><path d="M390.8 396.81L406.36 546.47" stroke="#132e65" stroke-width="1.5"></path><path d="M390.8 396.81L488.23 515.25" stroke="#132e65" stroke-width="1.5"></path><path d="M406.36 546.47L406.36 546.47" stroke="#132e65" stroke-width="1.5"></path><path d="M406.36 546.47L488.23 515.25" stroke="#132e65" stroke-width="1.5"></path><path d="M406.36 546.47L376.03 672.05" stroke="#132e65" stroke-width="1.5"></path><path d="M406.36 546.47L509.79 643.62" stroke="#132e65" stroke-width="1.5"></path><path d="M406.36 546.47L250.18 533.87" stroke="#132e65" stroke-width="1.5"></path><path d="M376.03 672.05L376.03 672.05" stroke="#132e65" stroke-width="1.5"></path><path d="M376.03 672.05L509.79 643.62" stroke="#132e65" stroke-width="1.5"></path><path d="M376.03 672.05L250.18 533.87" stroke="#132e65" stroke-width="1.5"></path><path d="M376.03 672.05L488.23 515.25" stroke="#132e65" stroke-width="1.5"></path><path d="M497.27 381.95L497.27 381.95" stroke="#132e65" stroke-width="1.5"></path><path d="M497.27 381.95L488.23 515.25" stroke="#132e65" stroke-width="1.5"></path><path d="M497.27 381.95L657.22 397.89" stroke="#132e65" stroke-width="1.5"></path><path d="M488.23 515.25L488.23 515.25" stroke="#132e65" stroke-width="1.5"></path><path d="M488.23 515.25L509.79 643.62" stroke="#132e65" stroke-width="1.5"></path><path d="M509.79 643.62L509.79 643.62" stroke="#132e65" stroke-width="1.5"></path><path d="M509.79 643.62L697.28 687.94" stroke="#132e65" stroke-width="1.5"></path><path d="M509.79 643.62L657.21 494.36" stroke="#132e65" stroke-width="1.5"></path><path d="M509.79 643.62L497.27 381.95" stroke="#132e65" stroke-width="1.5"></path><path d="M652.08 261.31L652.08 261.31" stroke="#132e65" stroke-width="1.5"></path><path d="M652.08 261.31L657.22 397.89" stroke="#132e65" stroke-width="1.5"></path><path d="M652.08 261.31L815.31 367.31" stroke="#132e65" stroke-width="1.5"></path><path d="M657.22 397.89L657.22 397.89" stroke="#132e65" stroke-width="1.5"></path><path d="M657.22 397.89L657.21 494.36" stroke="#132e65" stroke-width="1.5"></path><path d="M657.22 397.89L815.31 367.31" stroke="#132e65" stroke-width="1.5"></path><path d="M657.22 397.89L824.97 501.01" stroke="#132e65" stroke-width="1.5"></path><path d="M657.22 397.89L488.23 515.25" stroke="#132e65" stroke-width="1.5"></path><path d="M657.21 494.36L657.21 494.36" stroke="#132e65" stroke-width="1.5"></path><path d="M657.21 494.36L824.97 501.01" stroke="#132e65" stroke-width="1.5"></path><path d="M657.21 494.36L488.23 515.25" stroke="#132e65" stroke-width="1.5"></path><path d="M657.21 494.36L497.27 381.95" stroke="#132e65" stroke-width="1.5"></path><path d="M697.28 687.94L697.28 687.94" stroke="#132e65" stroke-width="1.5"></path><path d="M697.28 687.94L804.17 700.62" stroke="#132e65" stroke-width="1.5"></path><path d="M697.28 687.94L657.21 494.36" stroke="#132e65" stroke-width="1.5"></path><path d="M697.28 687.94L824.97 501.01" stroke="#132e65" stroke-width="1.5"></path><path d="M697.28 687.94L488.23 515.25" stroke="#132e65" stroke-width="1.5"></path><path d="M841.44 110.08L841.44 110.08" stroke="#132e65" stroke-width="1.5"></path><path d="M841.44 110.08L852.32 199.23" stroke="#132e65" stroke-width="1.5"></path><path d="M841.44 110.08L945.44 49.83" stroke="#132e65" stroke-width="1.5"></path><path d="M852.32 199.23L852.32 199.23" stroke="#132e65" stroke-width="1.5"></path><path d="M852.32 199.23L960.37 224.39" stroke="#132e65" stroke-width="1.5"></path><path d="M852.32 199.23L815.31 367.31" stroke="#132e65" stroke-width="1.5"></path><path d="M852.32 199.23L945.44 49.83" stroke="#132e65" stroke-width="1.5"></path><path d="M852.32 199.23L652.08 261.31" stroke="#132e65" stroke-width="1.5"></path><path d="M815.31 367.31L815.31 367.31" stroke="#132e65" stroke-width="1.5"></path><path d="M815.31 367.31L824.97 501.01" stroke="#132e65" stroke-width="1.5"></path><path d="M824.97 501.01L824.97 501.01" stroke="#132e65" stroke-width="1.5"></path><path d="M824.97 501.01L953.1 549.53" stroke="#132e65" stroke-width="1.5"></path><path d="M824.97 501.01L804.17 700.62" stroke="#132e65" stroke-width="1.5"></path><path d="M804.17 700.62L804.17 700.62" stroke="#132e65" stroke-width="1.5"></path><path d="M804.17 700.62L953.1 549.53" stroke="#132e65" stroke-width="1.5"></path><path d="M945.44 49.83L945.44 49.83" stroke="#132e65" stroke-width="1.5"></path><path d="M945.44 49.83L960.37 224.39" stroke="#132e65" stroke-width="1.5"></path><path d="M960.37 224.39L960.37 224.39" stroke="#132e65" stroke-width="1.5"></path><path d="M960.37 224.39L1113.87 231.63" stroke="#132e65" stroke-width="1.5"></path><path d="M953.1 549.53L953.1 549.53" stroke="#132e65" stroke-width="1.5"></path><path d="M953.1 549.53L1111.57 543.25" stroke="#132e65" stroke-width="1.5"></path><path d="M1124.05 -111.65L1124.05 -111.65" stroke="#132e65" stroke-width="1.5"></path><path d="M1124.05 -111.65L1261.61 -105.38" stroke="#132e65" stroke-width="1.5"></path><path d="M1124.05 -111.65L1240.24 68.31" stroke="#132e65" stroke-width="1.5"></path><path d="M1133.65 102.4L1133.65 102.4" stroke="#132e65" stroke-width="1.5"></path><path d="M1133.65 102.4L1240.24 68.31" stroke="#132e65" stroke-width="1.5"></path><path d="M1133.65 102.4L1113.87 231.63" stroke="#132e65" stroke-width="1.5"></path><path d="M1133.65 102.4L1278.41 190.25" stroke="#132e65" stroke-width="1.5"></path><path d="M1113.87 231.63L1113.87 231.63" stroke="#132e65" stroke-width="1.5"></path><path d="M1113.87 231.63L1112.13 360.35" stroke="#132e65" stroke-width="1.5"></path><path d="M1113.87 231.63L1278.41 190.25" stroke="#132e65" stroke-width="1.5"></path><path d="M1112.13 360.35L1112.13 360.35" stroke="#132e65" stroke-width="1.5"></path><path d="M1112.13 360.35L1111.57 543.25" stroke="#132e65" stroke-width="1.5"></path><path d="M1112.13 360.35L1302.55 338.2" stroke="#132e65" stroke-width="1.5"></path><path d="M1111.57 543.25L1111.57 543.25" stroke="#132e65" stroke-width="1.5"></path><path d="M1111.57 543.25L1088.46 684.32" stroke="#132e65" stroke-width="1.5"></path><path d="M1111.57 543.25L1283.5 528.95" stroke="#132e65" stroke-width="1.5"></path><path d="M1088.46 684.32L1088.46 684.32" stroke="#132e65" stroke-width="1.5"></path><path d="M1088.46 684.32L1265.58 674.05" stroke="#132e65" stroke-width="1.5"></path><path d="M1088.46 684.32L953.1 549.53" stroke="#132e65" stroke-width="1.5"></path><path d="M1088.46 684.32L1283.5 528.95" stroke="#132e65" stroke-width="1.5"></path><path d="M1088.46 684.32L804.17 700.62" stroke="#132e65" stroke-width="1.5"></path><path d="M1088.46 684.32L824.97 501.01" stroke="#132e65" stroke-width="1.5"></path><path d="M1261.61 -105.38L1261.61 -105.38" stroke="#132e65" stroke-width="1.5"></path><path d="M1240.24 68.31L1240.24 68.31" stroke="#132e65" stroke-width="1.5"></path><path d="M1240.24 68.31L1278.41 190.25" stroke="#132e65" stroke-width="1.5"></path><path d="M1278.41 190.25L1278.41 190.25" stroke="#132e65" stroke-width="1.5"></path><path d="M1302.55 338.2L1302.55 338.2" stroke="#132e65" stroke-width="1.5"></path><path d="M1302.55 338.2L1425.82 396.26" stroke="#132e65" stroke-width="1.5"></path><path d="M1302.55 338.2L1278.41 190.25" stroke="#132e65" stroke-width="1.5"></path><path d="M1302.55 338.2L1283.5 528.95" stroke="#132e65" stroke-width="1.5"></path><path d="M1302.55 338.2L1444.65 201.92" stroke="#132e65" stroke-width="1.5"></path><path d="M1302.55 338.2L1113.87 231.63" stroke="#132e65" stroke-width="1.5"></path><path d="M1283.5 528.95L1283.5 528.95" stroke="#132e65" stroke-width="1.5"></path><path d="M1283.5 528.95L1418.13 543.66" stroke="#132e65" stroke-width="1.5"></path><path d="M1283.5 528.95L1265.58 674.05" stroke="#132e65" stroke-width="1.5"></path><path d="M1265.58 674.05L1265.58 674.05" stroke="#132e65" stroke-width="1.5"></path><path d="M1265.58 674.05L1424.78 696.22" stroke="#132e65" stroke-width="1.5"></path><path d="M1265.58 674.05L1418.13 543.66" stroke="#132e65" stroke-width="1.5"></path><path d="M1265.58 674.05L1111.57 543.25" stroke="#132e65" stroke-width="1.5"></path><path d="M1398.77 -53.17L1398.77 -53.17" stroke="#132e65" stroke-width="1.5"></path><path d="M1398.77 -53.17L1261.61 -105.38" stroke="#132e65" stroke-width="1.5"></path><path d="M1398.77 -53.17L1419.61 96.7" stroke="#132e65" stroke-width="1.5"></path><path d="M1398.77 -53.17L1539.63 -109.94" stroke="#132e65" stroke-width="1.5"></path><path d="M1398.77 -53.17L1240.24 68.31" stroke="#132e65" stroke-width="1.5"></path><path d="M1398.77 -53.17L1444.65 201.92" stroke="#132e65" stroke-width="1.5"></path><path d="M1398.77 -53.17L1278.41 190.25" stroke="#132e65" stroke-width="1.5"></path><path d="M1419.61 96.7L1419.61 96.7" stroke="#132e65" stroke-width="1.5"></path><path d="M1419.61 96.7L1444.65 201.92" stroke="#132e65" stroke-width="1.5"></path><path d="M1419.61 96.7L1278.41 190.25" stroke="#132e65" stroke-width="1.5"></path><path d="M1419.61 96.7L1240.24 68.31" stroke="#132e65" stroke-width="1.5"></path><path d="M1444.65 201.92L1444.65 201.92" stroke="#132e65" stroke-width="1.5"></path><path d="M1444.65 201.92L1565.86 242.24" stroke="#132e65" stroke-width="1.5"></path><path d="M1444.65 201.92L1278.41 190.25" stroke="#132e65" stroke-width="1.5"></path><path d="M1425.82 396.26L1425.82 396.26" stroke="#132e65" stroke-width="1.5"></path><path d="M1425.82 396.26L1547.46 397.54" stroke="#132e65" stroke-width="1.5"></path><path d="M1425.82 396.26L1418.13 543.66" stroke="#132e65" stroke-width="1.5"></path><path d="M1418.13 543.66L1418.13 543.66" stroke="#132e65" stroke-width="1.5"></path><path d="M1418.13 543.66L1424.78 696.22" stroke="#132e65" stroke-width="1.5"></path><path d="M1424.78 696.22L1424.78 696.22" stroke="#132e65" stroke-width="1.5"></path><path d="M1424.78 696.22L1550.05 677.54" stroke="#132e65" stroke-width="1.5"></path><path d="M1424.78 696.22L1283.5 528.95" stroke="#132e65" stroke-width="1.5"></path><path d="M1424.78 696.22L1578.9 502.29" stroke="#132e65" stroke-width="1.5"></path><path d="M1539.63 -109.94L1539.63 -109.94" stroke="#132e65" stroke-width="1.5"></path><path d="M1539.63 -109.94L1419.61 96.7" stroke="#132e65" stroke-width="1.5"></path><path d="M1565.86 242.24L1565.86 242.24" stroke="#132e65" stroke-width="1.5"></path><path d="M1565.86 242.24L1547.46 397.54" stroke="#132e65" stroke-width="1.5"></path><path d="M1547.46 397.54L1547.46 397.54" stroke="#132e65" stroke-width="1.5"></path><path d="M1547.46 397.54L1578.9 502.29" stroke="#132e65" stroke-width="1.5"></path><path d="M1547.46 397.54L1418.13 543.66" stroke="#132e65" stroke-width="1.5"></path><path d="M1547.46 397.54L1444.65 201.92" stroke="#132e65" stroke-width="1.5"></path><path d="M1547.46 397.54L1302.55 338.2" stroke="#132e65" stroke-width="1.5"></path><path d="M1578.9 502.29L1578.9 502.29" stroke="#132e65" stroke-width="1.5"></path><path d="M1578.9 502.29L1418.13 543.66" stroke="#132e65" stroke-width="1.5"></path><path d="M1550.05 677.54L1550.05 677.54" stroke="#132e65" stroke-width="1.5"></path><path d="M1550.05 677.54L1578.9 502.29" stroke="#132e65" stroke-width="1.5"></path><path d="M1550.05 677.54L1418.13 543.66" stroke="#132e65" stroke-width="1.5"></path><circle r="5" cx="-57.72" cy="386.02" fill="#132e65"></circle><circle r="5" cx="-75.7" cy="561.93" fill="#132e65"></circle><circle r="5" cx="-42.32" cy="690.6" fill="#132e65"></circle><circle r="5" cx="59.87" cy="377.57" fill="#132e65"></circle><circle r="5" cx="107.48" cy="649.79" fill="#132e65"></circle><circle r="5" cx="196.31" cy="388.43" fill="#132e65"></circle><circle r="5" cx="250.18" cy="533.87" fill="#132e65"></circle><circle r="5" cx="235.01" cy="708.13" fill="#132e65"></circle><circle r="5" cx="390.8" cy="396.81" fill="#132e65"></circle><circle r="5" cx="406.36" cy="546.47" fill="#132e65"></circle><circle r="5" cx="376.03" cy="672.05" fill="#132e65"></circle><circle r="5" cx="497.27" cy="381.95" fill="#132e65"></circle><circle r="5" cx="488.23" cy="515.25" fill="#132e65"></circle><circle r="5" cx="509.79" cy="643.62" fill="#132e65"></circle><circle r="5" cx="652.08" cy="261.31" fill="#132e65"></circle><circle r="5" cx="657.22" cy="397.89" fill="#132e65"></circle><circle r="5" cx="657.21" cy="494.36" fill="#132e65"></circle><circle r="5" cx="697.28" cy="687.94" fill="#132e65"></circle><circle r="5" cx="841.44" cy="110.08" fill="#132e65"></circle><circle r="5" cx="852.32" cy="199.23" fill="#132e65"></circle><circle r="5" cx="815.31" cy="367.31" fill="#132e65"></circle><circle r="5" cx="824.97" cy="501.01" fill="#132e65"></circle><circle r="5" cx="804.17" cy="700.62" fill="#132e65"></circle><circle r="5" cx="945.44" cy="49.83" fill="#132e65"></circle><circle r="5" cx="960.37" cy="224.39" fill="#132e65"></circle><circle r="5" cx="953.1" cy="549.53" fill="#132e65"></circle><circle r="5" cx="1124.05" cy="-111.65" fill="#132e65"></circle><circle r="5" cx="1133.65" cy="102.4" fill="#132e65"></circle><circle r="5" cx="1113.87" cy="231.63" fill="#132e65"></circle><circle r="5" cx="1112.13" cy="360.35" fill="#132e65"></circle><circle r="5" cx="1111.57" cy="543.25" fill="#132e65"></circle><circle r="5" cx="1088.46" cy="684.32" fill="#132e65"></circle><circle r="5" cx="1261.61" cy="-105.38" fill="#132e65"></circle><circle r="5" cx="1240.24" cy="68.31" fill="#132e65"></circle><circle r="5" cx="1278.41" cy="190.25" fill="#132e65"></circle><circle r="5" cx="1302.55" cy="338.2" fill="#132e65"></circle><circle r="5" cx="1283.5" cy="528.95" fill="#132e65"></circle><circle r="5" cx="1265.58" cy="674.05" fill="#132e65"></circle><circle r="5" cx="1398.77" cy="-53.17" fill="#132e65"></circle><circle r="5" cx="1419.61" cy="96.7" fill="#132e65"></circle><circle r="5" cx="1444.65" cy="201.92" fill="#132e65"></circle><circle r="5" cx="1425.82" cy="396.26" fill="#132e65"></circle><circle r="5" cx="1418.13" cy="543.66" fill="#132e65"></circle><circle r="5" cx="1424.78" cy="696.22" fill="#132e65"></circle><circle r="5" cx="1539.63" cy="-109.94" fill="#132e65"></circle><circle r="5" cx="1565.86" cy="242.24" fill="#132e65"></circle><circle r="5" cx="1547.46" cy="397.54" fill="#132e65"></circle><circle r="5" cx="1578.9" cy="502.29" fill="#132e65"></circle><circle r="5" cx="1550.05" cy="677.54" fill="#132e65"></circle><path d="M859.65 693.37L859.65 693.37" stroke="hsl(228.5, 77.2%, 51.5%)" stroke-width="1.5"></path><path d="M859.65 693.37L937.64 687.64" stroke="hsl(228.5, 77.2%, 51.5%)" stroke-width="1.5"></path><path d="M859.65 693.37L859.53 540.08" stroke="hsl(228.5, 77.2%, 51.5%)" stroke-width="1.5"></path><path d="M859.65 693.37L995.62 523.97" stroke="hsl(228.5, 77.2%, 51.5%)" stroke-width="1.5"></path><path d="M859.65 693.37L672.33 508.88" stroke="hsl(228.5, 77.2%, 51.5%)" stroke-width="1.5"></path><path d="M995.62 523.97L995.62 523.97" stroke="hsl(228.5, 77.2%, 51.5%)" stroke-width="1.5"></path><path d="M995.62 523.97L859.53 540.08" stroke="hsl(228.5, 77.2%, 51.5%)" stroke-width="1.5"></path><path d="M995.62 523.97L1133.67 533.05" stroke="hsl(228.5, 77.2%, 51.5%)" stroke-width="1.5"></path><path d="M995.62 523.97L1007.13 359.78" stroke="hsl(228.5, 77.2%, 51.5%)" stroke-width="1.5"></path><path d="M995.62 523.97L937.64 687.64" stroke="hsl(228.5, 77.2%, 51.5%)" stroke-width="1.5"></path><path d="M995.62 523.97L1148.5 385.44" stroke="hsl(228.5, 77.2%, 51.5%)" stroke-width="1.5"></path><path d="M1293.92 253.77L1293.92 253.77" stroke="hsl(228.5, 77.2%, 51.5%)" stroke-width="1.5"></path><path d="M1293.92 253.77L1287.17 358" stroke="hsl(228.5, 77.2%, 51.5%)" stroke-width="1.5"></path><path d="M1293.92 253.77L1422.08 215.56" stroke="hsl(228.5, 77.2%, 51.5%)" stroke-width="1.5"></path><path d="M1287.17 358L1287.17 358" stroke="hsl(228.5, 77.2%, 51.5%)" stroke-width="1.5"></path><path d="M1287.17 358L1395.07 392.87" stroke="hsl(228.5, 77.2%, 51.5%)" stroke-width="1.5"></path><path d="M1275.08 520.38L1275.08 520.38" stroke="hsl(228.5, 77.2%, 51.5%)" stroke-width="1.5"></path><path d="M1275.08 520.38L1133.67 533.05" stroke="hsl(228.5, 77.2%, 51.5%)" stroke-width="1.5"></path><path d="M1275.08 520.38L1287.17 358" stroke="hsl(228.5, 77.2%, 51.5%)" stroke-width="1.5"></path><path d="M1275.08 520.38L1443.63 502.96" stroke="hsl(228.5, 77.2%, 51.5%)" stroke-width="1.5"></path><path d="M1584.87 -87.27L1584.87 -87.27" stroke="hsl(228.5, 77.2%, 51.5%)" stroke-width="1.5"></path><path d="M1584.87 -87.27L1450.84 -110.91" stroke="hsl(228.5, 77.2%, 51.5%)" stroke-width="1.5"></path><path d="M1584.87 -87.27L1599.57 106.09" stroke="hsl(228.5, 77.2%, 51.5%)" stroke-width="1.5"></path><path d="M1584.87 -87.27L1413.1 52.93" stroke="hsl(228.5, 77.2%, 51.5%)" stroke-width="1.5"></path><path d="M1584.87 -87.27L1258.15 -46.96" stroke="hsl(228.5, 77.2%, 51.5%)" stroke-width="1.5"></path><path d="M1584.87 -87.27L1422.08 215.56" stroke="hsl(228.5, 77.2%, 51.5%)" stroke-width="1.5"></path><path d="M1584.87 -87.27L1261.49 81.03" stroke="hsl(228.5, 77.2%, 51.5%)" stroke-width="1.5"></path><path d="M-77.81 560.67L-77.81 560.67" stroke="hsl(228.5, 77.2%, 51.5%)" stroke-width="1.5"></path><path d="M-77.81 560.67L-96.15 695.1" stroke="hsl(228.5, 77.2%, 51.5%)" stroke-width="1.5"></path><path d="M-77.81 560.67L62.1 539.86" stroke="hsl(228.5, 77.2%, 51.5%)" stroke-width="1.5"></path><path d="M-77.81 560.67L83.08 692.32" stroke="hsl(228.5, 77.2%, 51.5%)" stroke-width="1.5"></path><path d="M-77.81 560.67L244.38 515.84" stroke="hsl(228.5, 77.2%, 51.5%)" stroke-width="1.5"></path><path d="M-77.81 560.67L243.51 681.51" stroke="hsl(228.5, 77.2%, 51.5%)" stroke-width="1.5"></path><path d="M-77.81 560.67L341.98 535.91" stroke="hsl(228.5, 77.2%, 51.5%)" stroke-width="1.5"></path><path d="M-96.15 695.1L-96.15 695.1" stroke="hsl(228.5, 77.2%, 51.5%)" stroke-width="1.5"></path><path d="M-96.15 695.1L83.08 692.32" stroke="hsl(228.5, 77.2%, 51.5%)" stroke-width="1.5"></path><path d="M62.1 539.86L62.1 539.86" stroke="hsl(228.5, 77.2%, 51.5%)" stroke-width="1.5"></path><path d="M62.1 539.86L83.08 692.32" stroke="hsl(228.5, 77.2%, 51.5%)" stroke-width="1.5"></path><path d="M62.1 539.86L244.38 515.84" stroke="hsl(228.5, 77.2%, 51.5%)" stroke-width="1.5"></path><path d="M83.08 692.32L83.08 692.32" stroke="hsl(228.5, 77.2%, 51.5%)" stroke-width="1.5"></path><path d="M83.08 692.32L243.51 681.51" stroke="hsl(228.5, 77.2%, 51.5%)" stroke-width="1.5"></path><path d="M244.38 515.84L244.38 515.84" stroke="hsl(228.5, 77.2%, 51.5%)" stroke-width="1.5"></path><path d="M244.38 515.84L341.98 535.91" stroke="hsl(228.5, 77.2%, 51.5%)" stroke-width="1.5"></path><path d="M244.38 515.84L243.51 681.51" stroke="hsl(228.5, 77.2%, 51.5%)" stroke-width="1.5"></path><path d="M244.38 515.84L384.68 683.45" stroke="hsl(228.5, 77.2%, 51.5%)" stroke-width="1.5"></path><path d="M243.51 681.51L243.51 681.51" stroke="hsl(228.5, 77.2%, 51.5%)" stroke-width="1.5"></path><path d="M243.51 681.51L384.68 683.45" stroke="hsl(228.5, 77.2%, 51.5%)" stroke-width="1.5"></path><path d="M243.51 681.51L341.98 535.91" stroke="hsl(228.5, 77.2%, 51.5%)" stroke-width="1.5"></path><path d="M243.51 681.51L62.1 539.86" stroke="hsl(228.5, 77.2%, 51.5%)" stroke-width="1.5"></path><path d="M243.51 681.51L542.65 670.32" stroke="hsl(228.5, 77.2%, 51.5%)" stroke-width="1.5"></path><path d="M341.98 535.91L341.98 535.91" stroke="hsl(228.5, 77.2%, 51.5%)" stroke-width="1.5"></path><path d="M341.98 535.91L384.68 683.45" stroke="hsl(228.5, 77.2%, 51.5%)" stroke-width="1.5"></path><path d="M341.98 535.91L542.65 670.32" stroke="hsl(228.5, 77.2%, 51.5%)" stroke-width="1.5"></path><path d="M384.68 683.45L384.68 683.45" stroke="hsl(228.5, 77.2%, 51.5%)" stroke-width="1.5"></path><path d="M384.68 683.45L542.65 670.32" stroke="hsl(228.5, 77.2%, 51.5%)" stroke-width="1.5"></path><path d="M542.65 670.32L542.65 670.32" stroke="hsl(228.5, 77.2%, 51.5%)" stroke-width="1.5"></path><path d="M542.65 670.32L672.33 508.88" stroke="hsl(228.5, 77.2%, 51.5%)" stroke-width="1.5"></path><path d="M672.33 508.88L672.33 508.88" stroke="hsl(228.5, 77.2%, 51.5%)" stroke-width="1.5"></path><path d="M672.33 508.88L859.53 540.08" stroke="hsl(228.5, 77.2%, 51.5%)" stroke-width="1.5"></path><path d="M672.33 508.88L831.01 374.85" stroke="hsl(228.5, 77.2%, 51.5%)" stroke-width="1.5"></path><path d="M672.33 508.88L937.64 687.64" stroke="hsl(228.5, 77.2%, 51.5%)" stroke-width="1.5"></path><path d="M831.01 374.85L831.01 374.85" stroke="hsl(228.5, 77.2%, 51.5%)" stroke-width="1.5"></path><path d="M831.01 374.85L859.53 540.08" stroke="hsl(228.5, 77.2%, 51.5%)" stroke-width="1.5"></path><path d="M831.01 374.85L1007.13 359.78" stroke="hsl(228.5, 77.2%, 51.5%)" stroke-width="1.5"></path><path d="M859.53 540.08L859.53 540.08" stroke="hsl(228.5, 77.2%, 51.5%)" stroke-width="1.5"></path><path d="M859.53 540.08L937.64 687.64" stroke="hsl(228.5, 77.2%, 51.5%)" stroke-width="1.5"></path><path d="M1007.13 359.78L1007.13 359.78" stroke="hsl(228.5, 77.2%, 51.5%)" stroke-width="1.5"></path><path d="M1007.13 359.78L1148.5 385.44" stroke="hsl(228.5, 77.2%, 51.5%)" stroke-width="1.5"></path><path d="M1007.13 359.78L1135.18 255.07" stroke="hsl(228.5, 77.2%, 51.5%)" stroke-width="1.5"></path><path d="M1007.13 359.78L1133.67 533.05" stroke="hsl(228.5, 77.2%, 51.5%)" stroke-width="1.5"></path><path d="M1007.13 359.78L859.53 540.08" stroke="hsl(228.5, 77.2%, 51.5%)" stroke-width="1.5"></path><path d="M937.64 687.64L937.64 687.64" stroke="hsl(228.5, 77.2%, 51.5%)" stroke-width="1.5"></path><path d="M937.64 687.64L1155.45 673.82" stroke="hsl(228.5, 77.2%, 51.5%)" stroke-width="1.5"></path><path d="M937.64 687.64L1133.67 533.05" stroke="hsl(228.5, 77.2%, 51.5%)" stroke-width="1.5"></path><path d="M1135.18 255.07L1135.18 255.07" stroke="hsl(228.5, 77.2%, 51.5%)" stroke-width="1.5"></path><path d="M1135.18 255.07L1148.5 385.44" stroke="hsl(228.5, 77.2%, 51.5%)" stroke-width="1.5"></path><path d="M1135.18 255.07L1293.92 253.77" stroke="hsl(228.5, 77.2%, 51.5%)" stroke-width="1.5"></path><path d="M1135.18 255.07L1287.17 358" stroke="hsl(228.5, 77.2%, 51.5%)" stroke-width="1.5"></path><path d="M1148.5 385.44L1148.5 385.44" stroke="hsl(228.5, 77.2%, 51.5%)" stroke-width="1.5"></path><path d="M1148.5 385.44L1287.17 358" stroke="hsl(228.5, 77.2%, 51.5%)" stroke-width="1.5"></path><path d="M1133.67 533.05L1133.67 533.05" stroke="hsl(228.5, 77.2%, 51.5%)" stroke-width="1.5"></path><path d="M1133.67 533.05L1155.45 673.82" stroke="hsl(228.5, 77.2%, 51.5%)" stroke-width="1.5"></path><path d="M1155.45 673.82L1155.45 673.82" stroke="hsl(228.5, 77.2%, 51.5%)" stroke-width="1.5"></path><path d="M1155.45 673.82L1275.08 520.38" stroke="hsl(228.5, 77.2%, 51.5%)" stroke-width="1.5"></path><path d="M1155.45 673.82L995.62 523.97" stroke="hsl(228.5, 77.2%, 51.5%)" stroke-width="1.5"></path><path d="M1155.45 673.82L1400.09 665.67" stroke="hsl(228.5, 77.2%, 51.5%)" stroke-width="1.5"></path><path d="M1258.15 -46.96L1258.15 -46.96" stroke="hsl(228.5, 77.2%, 51.5%)" stroke-width="1.5"></path><path d="M1258.15 -46.96L1261.49 81.03" stroke="hsl(228.5, 77.2%, 51.5%)" stroke-width="1.5"></path><path d="M1258.15 -46.96L1413.1 52.93" stroke="hsl(228.5, 77.2%, 51.5%)" stroke-width="1.5"></path><path d="M1258.15 -46.96L1450.84 -110.91" stroke="hsl(228.5, 77.2%, 51.5%)" stroke-width="1.5"></path><path d="M1258.15 -46.96L1293.92 253.77" stroke="hsl(228.5, 77.2%, 51.5%)" stroke-width="1.5"></path><path d="M1258.15 -46.96L1422.08 215.56" stroke="hsl(228.5, 77.2%, 51.5%)" stroke-width="1.5"></path><path d="M1261.49 81.03L1261.49 81.03" stroke="hsl(228.5, 77.2%, 51.5%)" stroke-width="1.5"></path><path d="M1261.49 81.03L1413.1 52.93" stroke="hsl(228.5, 77.2%, 51.5%)" stroke-width="1.5"></path><path d="M1261.49 81.03L1293.92 253.77" stroke="hsl(228.5, 77.2%, 51.5%)" stroke-width="1.5"></path><path d="M1261.49 81.03L1422.08 215.56" stroke="hsl(228.5, 77.2%, 51.5%)" stroke-width="1.5"></path><path d="M1450.84 -110.91L1450.84 -110.91" stroke="hsl(228.5, 77.2%, 51.5%)" stroke-width="1.5"></path><path d="M1450.84 -110.91L1413.1 52.93" stroke="hsl(228.5, 77.2%, 51.5%)" stroke-width="1.5"></path><path d="M1450.84 -110.91L1599.57 106.09" stroke="hsl(228.5, 77.2%, 51.5%)" stroke-width="1.5"></path><path d="M1413.1 52.93L1413.1 52.93" stroke="hsl(228.5, 77.2%, 51.5%)" stroke-width="1.5"></path><path d="M1413.1 52.93L1422.08 215.56" stroke="hsl(228.5, 77.2%, 51.5%)" stroke-width="1.5"></path><path d="M1413.1 52.93L1599.57 106.09" stroke="hsl(228.5, 77.2%, 51.5%)" stroke-width="1.5"></path><path d="M1422.08 215.56L1422.08 215.56" stroke="hsl(228.5, 77.2%, 51.5%)" stroke-width="1.5"></path><path d="M1422.08 215.56L1395.07 392.87" stroke="hsl(228.5, 77.2%, 51.5%)" stroke-width="1.5"></path><path d="M1395.07 392.87L1395.07 392.87" stroke="hsl(228.5, 77.2%, 51.5%)" stroke-width="1.5"></path><path d="M1395.07 392.87L1443.63 502.96" stroke="hsl(228.5, 77.2%, 51.5%)" stroke-width="1.5"></path><path d="M1395.07 392.87L1293.92 253.77" stroke="hsl(228.5, 77.2%, 51.5%)" stroke-width="1.5"></path><path d="M1395.07 392.87L1275.08 520.38" stroke="hsl(228.5, 77.2%, 51.5%)" stroke-width="1.5"></path><path d="M1443.63 502.96L1443.63 502.96" stroke="hsl(228.5, 77.2%, 51.5%)" stroke-width="1.5"></path><path d="M1443.63 502.96L1601.71 559.71" stroke="hsl(228.5, 77.2%, 51.5%)" stroke-width="1.5"></path><path d="M1400.09 665.67L1400.09 665.67" stroke="hsl(228.5, 77.2%, 51.5%)" stroke-width="1.5"></path><path d="M1400.09 665.67L1564.36 680.72" stroke="hsl(228.5, 77.2%, 51.5%)" stroke-width="1.5"></path><path d="M1400.09 665.67L1443.63 502.96" stroke="hsl(228.5, 77.2%, 51.5%)" stroke-width="1.5"></path><path d="M1400.09 665.67L1275.08 520.38" stroke="hsl(228.5, 77.2%, 51.5%)" stroke-width="1.5"></path><path d="M1400.09 665.67L1601.71 559.71" stroke="hsl(228.5, 77.2%, 51.5%)" stroke-width="1.5"></path><path d="M1599.57 106.09L1599.57 106.09" stroke="hsl(228.5, 77.2%, 51.5%)" stroke-width="1.5"></path><path d="M1591.85 361.53L1591.85 361.53" stroke="hsl(228.5, 77.2%, 51.5%)" stroke-width="1.5"></path><path d="M1591.85 361.53L1601.71 559.71" stroke="hsl(228.5, 77.2%, 51.5%)" stroke-width="1.5"></path><path d="M1591.85 361.53L1395.07 392.87" stroke="hsl(228.5, 77.2%, 51.5%)" stroke-width="1.5"></path><path d="M1591.85 361.53L1443.63 502.96" stroke="hsl(228.5, 77.2%, 51.5%)" stroke-width="1.5"></path><path d="M1601.71 559.71L1601.71 559.71" stroke="hsl(228.5, 77.2%, 51.5%)" stroke-width="1.5"></path><path d="M1601.71 559.71L1564.36 680.72" stroke="hsl(228.5, 77.2%, 51.5%)" stroke-width="1.5"></path><path d="M1564.36 680.72L1564.36 680.72" stroke="hsl(228.5, 77.2%, 51.5%)" stroke-width="1.5"></path><path d="M1564.36 680.72L1443.63 502.96" stroke="hsl(228.5, 77.2%, 51.5%)" stroke-width="1.5"></path><path d="M1564.36 680.72L1591.85 361.53" stroke="hsl(228.5, 77.2%, 51.5%)" stroke-width="1.5"></path><path d="M1564.36 680.72L1275.08 520.38" stroke="hsl(228.5, 77.2%, 51.5%)" stroke-width="1.5"></path><path d="M1564.36 680.72L1395.07 392.87" stroke="hsl(228.5, 77.2%, 51.5%)" stroke-width="1.5"></path><circle r="25" cx="859.65" cy="693.37" fill="url(&quot;#SvgjsRadialGradient1003&quot;)"></circle><circle r="25" cx="995.62" cy="523.97" fill="url(&quot;#SvgjsRadialGradient1003&quot;)"></circle><circle r="25" cx="1293.92" cy="253.77" fill="url(&quot;#SvgjsRadialGradient1003&quot;)"></circle><circle r="25" cx="1287.17" cy="358" fill="url(&quot;#SvgjsRadialGradient1003&quot;)"></circle><circle r="25" cx="1275.08" cy="520.38" fill="url(&quot;#SvgjsRadialGradient1003&quot;)"></circle><circle r="25" cx="1584.87" cy="-87.27" fill="url(&quot;#SvgjsRadialGradient1003&quot;)"></circle><circle r="5" cx="-77.81" cy="560.67" fill="#8b9ad9"></circle><circle r="5" cx="-96.15" cy="695.1" fill="#8b9ad9"></circle><circle r="5" cx="62.1" cy="539.86" fill="#8b9ad9"></circle><circle r="5" cx="83.08" cy="692.32" fill="#8b9ad9"></circle><circle r="5" cx="244.38" cy="515.84" fill="#8b9ad9"></circle><circle r="5" cx="243.51" cy="681.51" fill="#8b9ad9"></circle><circle r="5" cx="341.98" cy="535.91" fill="#8b9ad9"></circle><circle r="5" cx="384.68" cy="683.45" fill="#8b9ad9"></circle><circle r="5" cx="542.65" cy="670.32" fill="#8b9ad9"></circle><circle r="5" cx="672.33" cy="508.88" fill="#8b9ad9"></circle><circle r="5" cx="831.01" cy="374.85" fill="#8b9ad9"></circle><circle r="5" cx="859.53" cy="540.08" fill="#8b9ad9"></circle><circle r="5" cx="1007.13" cy="359.78" fill="#8b9ad9"></circle><circle r="5" cx="937.64" cy="687.64" fill="#8b9ad9"></circle><circle r="5" cx="1135.18" cy="255.07" fill="#8b9ad9"></circle><circle r="5" cx="1148.5" cy="385.44" fill="#8b9ad9"></circle><circle r="5" cx="1133.67" cy="533.05" fill="#8b9ad9"></circle><circle r="5" cx="1155.45" cy="673.82" fill="#8b9ad9"></circle><circle r="5" cx="1258.15" cy="-46.96" fill="#8b9ad9"></circle><circle r="5" cx="1261.49" cy="81.03" fill="#8b9ad9"></circle><circle r="5" cx="1450.84" cy="-110.91" fill="#8b9ad9"></circle><circle r="5" cx="1413.1" cy="52.93" fill="#8b9ad9"></circle><circle r="5" cx="1422.08" cy="215.56" fill="#8b9ad9"></circle><circle r="5" cx="1395.07" cy="392.87" fill="#8b9ad9"></circle><circle r="5" cx="1443.63" cy="502.96" fill="#8b9ad9"></circle><circle r="5" cx="1400.09" cy="665.67" fill="#8b9ad9"></circle><circle r="5" cx="1599.57" cy="106.09" fill="#8b9ad9"></circle><circle r="5" cx="1591.85" cy="361.53" fill="#8b9ad9"></circle><circle r="5" cx="1601.71" cy="559.71" fill="#8b9ad9"></circle><circle r="5" cx="1564.36" cy="680.72" fill="#8b9ad9"></circle></g><defs><mask id="SvgjsMask1002"><rect width="1440" height="560" fill="#ffffff"></rect></mask><radialGradient id="SvgjsRadialGradient1003"><stop stop-color="#ffffff" offset="0.1"></stop><stop stop-color="#1735b3" offset="0.2"></stop><stop stop-color="rgba(23, 53, 179, 0)" offset="1"></stop></radialGradient></defs></svg>