<svg xmlns="http://www.w3.org/2000/svg" version="1.1" xmlns:xlink="http://www.w3.org/1999/xlink" xmlns:svgjs="http://svgjs.dev/svgjs" width="1440" height="560" preserveAspectRatio="none" viewBox="0 0 1440 560"><g mask="url(&quot;#SvgjsMask1001&quot;)" fill="none"><rect width="1440" height="560" x="0" y="0" fill="rgba(104, 18, 243, 1)"></rect><path d="M0,545.033C98.435,516.149,136.642,400.082,213.326,331.941C274.775,277.338,367.527,258.115,405.144,185.023C443.267,110.948,430.981,22.086,414.86,-59.648C399.358,-138.244,358.614,-205.718,314.84,-272.811C264.591,-349.828,223.489,-439.331,140.837,-479.646C52.916,-522.531,-49.723,-514.265,-146.125,-497.655C-251.771,-479.452,-377.214,-467.897,-438.369,-379.849C-499.638,-291.636,-445.139,-171.672,-447.126,-64.287C-448.822,27.365,-470.973,116.097,-449.195,205.14C-423.93,308.44,-397.286,422.063,-312.482,486.231C-226.215,551.507,-103.803,575.492,0,545.033" fill="#520ac7"></path><path d="M1440 1020.94C1528.369 1017.7470000000001 1610.955 988.829 1689.558 948.3199999999999 1775.077 904.2470000000001 1871.066 862.557 1914.196 776.558 1957.732 689.749 1926.6 587.957 1918.837 491.154 1910.5230000000001 387.48699999999997 1941.998 262.078 1867.147 189.875 1791.537 116.94 1665.646 159.74599999999998 1561.443 146.40300000000002 1476.201 135.488 1393.313 96.02600000000001 1310.388 118.58100000000002 1226.74 141.332 1158.091 201.26600000000002 1105.728 270.351 1055.488 336.635 1030.579 417.151 1021.427 499.818 1012.4929999999999 580.518 1028.2559999999999 659.258 1054.153 736.21 1082.585 820.693 1106.853 913.855 1178.577 966.783 1251.663 1020.716 1349.228 1024.22 1440 1020.94" fill="#8844f6"></path></g><defs><mask id="SvgjsMask1001"><rect width="1440" height="560" fill="#ffffff"></rect></mask></defs></svg>